<svg width="1108" height="665" viewBox="0 0 1108 665" fill="none" xmlns="http://www.w3.org/2000/svg">
<rect width="1108" height="665" fill="white"/>
<path d="M610.517 193.5L588 180.5V159.5L403.5 236V312L380.5 322V220.5L610.517 125V193.5Z" fill="url(#paint0_linear_139_1951)"/>
<path d="M50 418.5L178 372.5V406.5L125 426.5L339.5 574.5L378 554V497L401.5 510V580.5L337.5 615.5L50 418.5Z" fill="url(#paint1_linear_139_1951)"/>
<path d="M1023.48 372.6C1024.81 372.6 1026.45 372.667 1028.38 372.8C1030.38 372.933 1032.41 373.133 1034.48 373.4C1036.61 373.6 1038.45 373.833 1039.98 374.1C1041.58 374.3 1042.68 374.533 1043.28 374.8L1042.08 388.3H1041.08C1041.08 384.833 1039.78 382.067 1037.18 380C1034.65 377.867 1031.25 376.8 1026.98 376.8C1023.11 376.8 1019.98 377.733 1017.58 379.6C1015.25 381.467 1014.01 383.733 1013.88 386.4C1013.81 388.4 1014.45 390.133 1015.78 391.6C1017.11 393.067 1018.81 394.433 1020.88 395.7L1039.98 408.1C1043.05 409.833 1045.35 412.1 1046.88 414.9C1048.48 417.7 1049.18 420.967 1048.98 424.7C1048.65 431.233 1046.15 436.333 1041.48 440C1036.81 443.6 1030.48 445.4 1022.48 445.4C1019.55 445.4 1016.68 445.133 1013.88 444.6C1011.15 444.133 1008.71 443.467 1006.58 442.6C1004.45 441.667 1002.75 440.567 1001.48 439.3C1000.95 437.833 1000.71 436.067 1000.78 434C1000.85 431.933 1001.15 429.833 1001.68 427.7C1002.28 425.567 1003.01 423.8 1003.88 422.4H1004.78C1004.51 425.8 1005.11 428.967 1006.58 431.9C1008.11 434.767 1010.31 437.067 1013.18 438.8C1016.11 440.467 1019.58 441.267 1023.58 441.2C1027.98 441.133 1031.38 440.033 1033.78 437.9C1036.18 435.7 1037.38 433.067 1037.38 430C1037.38 427.933 1036.75 426.067 1035.48 424.4C1034.28 422.733 1032.28 421.133 1029.48 419.6L1011.98 408C1008.45 406 1005.88 403.433 1004.28 400.3C1002.68 397.167 1002.05 393.767 1002.38 390.1C1002.71 386.633 1003.75 383.6 1005.48 381C1007.21 378.333 1009.58 376.267 1012.58 374.8C1015.65 373.333 1019.28 372.6 1023.48 372.6ZM1043.38 373.6L1043.18 375.7H1031.38V373.6H1043.38Z" fill="url(#paint2_linear_139_1951)"/>
<path d="M965.668 372.6C967.001 372.6 968.635 372.667 970.568 372.8C972.568 372.933 974.601 373.133 976.668 373.4C978.801 373.6 980.635 373.833 982.168 374.1C983.768 374.3 984.868 374.533 985.468 374.8L984.268 388.3H983.268C983.268 384.833 981.968 382.067 979.368 380C976.835 377.867 973.435 376.8 969.168 376.8C965.301 376.8 962.168 377.733 959.768 379.6C957.435 381.467 956.201 383.733 956.068 386.4C956.001 388.4 956.635 390.133 957.968 391.6C959.301 393.067 961.001 394.433 963.068 395.7L982.168 408.1C985.235 409.833 987.535 412.1 989.068 414.9C990.668 417.7 991.368 420.967 991.168 424.7C990.835 431.233 988.335 436.333 983.668 440C979.001 443.6 972.668 445.4 964.668 445.4C961.735 445.4 958.868 445.133 956.068 444.6C953.335 444.133 950.901 443.467 948.768 442.6C946.635 441.667 944.935 440.567 943.668 439.3C943.135 437.833 942.901 436.067 942.968 434C943.035 431.933 943.335 429.833 943.868 427.7C944.468 425.567 945.201 423.8 946.068 422.4H946.968C946.701 425.8 947.301 428.967 948.768 431.9C950.301 434.767 952.501 437.067 955.368 438.8C958.301 440.467 961.768 441.267 965.768 441.2C970.168 441.133 973.568 440.033 975.968 437.9C978.368 435.7 979.568 433.067 979.568 430C979.568 427.933 978.935 426.067 977.668 424.4C976.468 422.733 974.468 421.133 971.668 419.6L954.168 408C950.635 406 948.068 403.433 946.468 400.3C944.868 397.167 944.235 393.767 944.568 390.1C944.901 386.633 945.935 383.6 947.668 381C949.401 378.333 951.768 376.267 954.768 374.8C957.835 373.333 961.468 372.6 965.668 372.6ZM985.568 373.6L985.368 375.7H973.568V373.6H985.568Z" fill="url(#paint3_linear_139_1951)"/>
<path d="M901.684 374V444H886.684V374H901.684ZM928.084 439.7L930.484 444H901.384V439.7H928.084ZM924.384 407.4V411.6H901.384V407.4H924.384ZM929.284 374V378.3H901.384V374H929.284ZM935.384 423.5L930.784 444H911.184L914.784 439.7C918.118 439.7 921.051 439.067 923.584 437.8C926.118 436.467 928.284 434.6 930.084 432.2C931.884 429.734 933.318 426.834 934.384 423.5H935.384ZM924.384 411.4V421H923.384V420.2C923.384 417.734 922.584 415.7 920.984 414.1C919.384 412.5 917.351 411.667 914.884 411.6V411.4H924.384ZM924.384 398V407.6H914.884V407.4C917.351 407.334 919.384 406.5 920.984 404.9C922.584 403.234 923.384 401.167 923.384 398.7V398H924.384ZM929.284 378V389.7H928.284V388.5C928.284 385.434 927.351 382.967 925.484 381.1C923.684 379.234 921.218 378.267 918.084 378.2V378H929.284ZM929.284 372.2V375.1L917.084 374C918.551 374 920.084 373.9 921.684 373.7C923.351 373.5 924.884 373.267 926.284 373C927.684 372.734 928.684 372.467 929.284 372.2ZM886.984 436.7V444H878.984V443C878.984 443 879.184 443 879.584 443C880.051 443 880.284 443 880.284 443C882.018 443 883.484 442.4 884.684 441.2C885.951 439.934 886.618 438.434 886.684 436.7H886.984ZM886.984 381.3H886.684C886.618 379.567 885.951 378.1 884.684 376.9C883.484 375.634 882.018 375 880.284 375C880.284 375 880.051 375 879.584 375C879.184 375 878.984 375 878.984 375V374H886.984V381.3Z" fill="url(#paint4_linear_139_1951)"/>
<path d="M827.15 374H840.05C843.05 374 845.983 374.333 848.85 375C851.717 375.667 854.25 376.733 856.45 378.2C858.717 379.667 860.517 381.6 861.85 384C863.183 386.4 863.85 389.367 863.85 392.9C863.85 395.7 863.25 398.5 862.05 401.3C860.917 404.033 859.15 406.4 856.75 408.4C854.35 410.333 851.25 411.5 847.45 411.9C849.583 412.567 851.517 413.767 853.25 415.5C855.05 417.233 856.517 418.967 857.65 420.7C857.717 420.833 858.083 421.433 858.75 422.5C859.483 423.567 860.35 424.9 861.35 426.5C862.417 428.033 863.517 429.6 864.65 431.2C865.783 432.8 866.817 434.2 867.75 435.4C869.217 437.2 870.55 438.667 871.75 439.8C872.95 440.867 874.217 441.667 875.55 442.2C876.883 442.667 878.417 442.933 880.15 443V444H870.35C866.75 444 863.483 443.7 860.55 443.1C857.617 442.433 855.017 441.333 852.75 439.8C850.483 438.267 848.517 436.2 846.85 433.6C846.317 432.8 845.717 431.8 845.05 430.6C844.45 429.333 843.817 428 843.15 426.6C842.483 425.2 841.817 423.867 841.15 422.6C840.55 421.267 840.017 420.067 839.55 419C839.083 417.933 838.75 417.1 838.55 416.5C837.683 414.367 836.65 412.767 835.45 411.7C834.317 410.633 833.083 410 831.75 409.8V408.8C831.95 408.8 832.35 408.8 832.95 408.8C833.55 408.8 834.183 408.8 834.85 408.8C836.65 408.8 838.383 408.433 840.05 407.7C841.783 406.967 843.317 405.767 844.65 404.1C845.983 402.433 846.917 400.133 847.45 397.2C847.583 396.6 847.683 395.9 847.75 395.1C847.883 394.3 847.917 393.4 847.85 392.4C847.65 387.6 846.45 384.1 844.25 381.9C842.05 379.633 839.317 378.467 836.05 378.4C835.117 378.333 834.083 378.333 832.95 378.4C831.883 378.4 830.883 378.4 829.95 378.4C829.083 378.4 828.483 378.4 828.15 378.4C828.15 378.333 828.05 377.967 827.85 377.3C827.717 376.567 827.55 375.833 827.35 375.1C827.217 374.367 827.15 374 827.15 374ZM828.45 374V444H813.45V374H828.45ZM813.75 436.7V444H805.75V443C805.817 443 806.017 443 806.35 443C806.75 443 806.983 443 807.05 443C808.783 443 810.25 442.4 811.45 441.2C812.717 439.933 813.383 438.433 813.45 436.7H813.75ZM813.75 381.3H813.45C813.383 379.567 812.717 378.1 811.45 376.9C810.25 375.633 808.783 375 807.05 375C806.983 375 806.75 375 806.35 375C806.017 375 805.817 375 805.75 375V374H813.75V381.3ZM828.15 436.7H828.45C828.45 438.433 829.083 439.933 830.35 441.2C831.617 442.4 833.117 443 834.85 443C834.983 443 835.217 443 835.55 443C835.883 443 836.05 443 836.05 443V444H828.15V436.7Z" fill="url(#paint5_linear_139_1951)"/>
<path d="M761.72 374H773.72C779.454 374 784.087 374.833 787.62 376.5C791.22 378.167 793.887 380.467 795.62 383.4C797.42 386.267 798.387 389.533 798.52 393.2C798.654 396.6 798.087 399.7 796.82 402.5C795.554 405.3 793.82 407.633 791.62 409.5C789.42 411.367 786.887 412.733 784.02 413.6C781.22 414.4 778.287 414.6 775.22 414.2C772.22 413.733 769.287 412.567 766.42 410.7V409.7C766.42 409.7 766.82 409.7 767.62 409.7C768.487 409.7 769.554 409.567 770.82 409.3C772.154 409.033 773.52 408.533 774.92 407.8C776.387 407.067 777.754 405.933 779.02 404.4C780.287 402.867 781.254 400.833 781.92 398.3C782.187 397.433 782.354 396.467 782.42 395.4C782.554 394.267 782.587 393.233 782.52 392.3C782.454 388.033 781.287 384.633 779.02 382.1C776.82 379.5 773.687 378.2 769.62 378.2H762.72C762.72 378.2 762.62 377.867 762.42 377.2C762.287 376.467 762.12 375.767 761.92 375.1C761.787 374.367 761.72 374 761.72 374ZM763.02 374V444H748.02V374H763.02ZM748.32 436.7V444H740.32V443C740.387 443 740.587 443 740.92 443C741.32 443 741.554 443 741.62 443C743.354 443 744.82 442.4 746.02 441.2C747.287 439.933 747.954 438.433 748.02 436.7H748.32ZM748.32 381.3H748.02C748.02 379.567 747.387 378.1 746.12 376.9C744.854 375.633 743.354 375 741.62 375C741.554 375 741.354 375 741.02 375C740.687 375 740.487 375 740.42 375L740.32 374H748.32V381.3ZM762.72 436.7H763.02C763.087 438.433 763.72 439.933 764.92 441.2C766.187 442.4 767.687 443 769.42 443C769.487 443 769.687 443 770.02 443C770.42 443 770.654 443 770.72 443V444H762.72V436.7Z" fill="url(#paint6_linear_139_1951)"/>
<path d="M686.168 374L731.468 443.9H713.768L668.668 374H686.168ZM680.468 436.8C679.868 437.733 679.668 438.7 679.868 439.7C680.135 440.633 680.668 441.433 681.468 442.1C682.268 442.7 683.102 443 683.968 443C683.968 443 684.168 443 684.568 443C685.035 443 685.268 443 685.268 443V444H660.568V443H661.968C664.102 443 666.035 442.4 667.768 441.2C669.502 440 670.935 438.633 672.068 437.1L680.468 436.8ZM692.768 407.8L697.668 411.6L675.568 444H667.168L692.768 407.8ZM709.168 436.8L727.068 437.2C728.135 438.733 729.568 440.1 731.368 441.3C733.168 442.433 735.102 443 737.168 443H738.568V444H704.468V443C704.468 443 704.668 443 705.068 443C705.535 443 705.768 443 705.768 443C707.102 443 708.202 442.333 709.068 441C710.002 439.667 710.035 438.267 709.168 436.8ZM695.568 374V375C695.568 375 695.368 375 694.968 375C694.568 375 694.368 375 694.368 375C693.435 375 692.568 375.333 691.768 376C691.035 376.6 690.568 377.4 690.368 378.4C690.168 379.333 690.335 380.267 690.868 381.2L673.068 380.9C672.002 379.367 670.568 378 668.768 376.8C667.035 375.6 665.102 375 662.968 375H661.568V374H695.568ZM728.568 374L704.368 409.9L700.268 405L720.068 374H728.568ZM735.368 374V375H733.968C731.902 375 729.968 375.6 728.168 376.8C726.435 378 725.002 379.367 723.868 380.9L715.468 381.2C716.068 380.267 716.235 379.333 715.968 378.4C715.768 377.4 715.302 376.6 714.568 376C713.835 375.333 713.002 375 712.068 375C712.068 375 711.868 375 711.468 375C711.068 375 710.868 375 710.868 375L710.768 374H735.368Z" fill="url(#paint7_linear_139_1951)"/>
<path d="M626.684 374V444H611.684V374H626.684ZM653.084 439.7L655.484 444H626.384V439.7H653.084ZM649.384 407.4V411.6H626.384V407.4H649.384ZM654.284 374V378.3H626.384V374H654.284ZM660.384 423.5L655.784 444H636.184L639.784 439.7C643.118 439.7 646.051 439.067 648.584 437.8C651.118 436.467 653.284 434.6 655.084 432.2C656.884 429.734 658.318 426.834 659.384 423.5H660.384ZM649.384 411.4V421H648.384V420.2C648.384 417.734 647.584 415.7 645.984 414.1C644.384 412.5 642.351 411.667 639.884 411.6V411.4H649.384ZM649.384 398V407.6H639.884V407.4C642.351 407.334 644.384 406.5 645.984 404.9C647.584 403.234 648.384 401.167 648.384 398.7V398H649.384ZM654.284 378V389.7H653.284V388.5C653.284 385.434 652.351 382.967 650.484 381.1C648.684 379.234 646.218 378.267 643.084 378.2V378H654.284ZM654.284 372.2V375.1L642.084 374C643.551 374 645.084 373.9 646.684 373.7C648.351 373.5 649.884 373.267 651.284 373C652.684 372.734 653.684 372.467 654.284 372.2ZM611.984 436.7V444H603.984V443C603.984 443 604.184 443 604.584 443C605.051 443 605.284 443 605.284 443C607.018 443 608.484 442.4 609.684 441.2C610.951 439.934 611.618 438.434 611.684 436.7H611.984ZM611.984 381.3H611.684C611.618 379.567 610.951 378.1 609.684 376.9C608.484 375.634 607.018 375 605.284 375C605.284 375 605.051 375 604.584 375C604.184 375 603.984 375 603.984 375V374H611.984V381.3Z" fill="url(#paint8_linear_139_1951)"/>
<path d="M538.501 374V444H523.501V374H538.501ZM564.901 439.7L567.301 444H538.201V439.7H564.901ZM561.201 407.4V411.6H538.201V407.4H561.201ZM566.101 374V378.3H538.201V374H566.101ZM572.201 423.5L567.601 444H548.001L551.601 439.7C554.934 439.7 557.867 439.067 560.401 437.8C562.934 436.467 565.101 434.6 566.901 432.2C568.701 429.734 570.134 426.834 571.201 423.5H572.201ZM561.201 411.4V421H560.201V420.2C560.201 417.734 559.401 415.7 557.801 414.1C556.201 412.5 554.167 411.667 551.701 411.6V411.4H561.201ZM561.201 398V407.6H551.701V407.4C554.167 407.334 556.201 406.5 557.801 404.9C559.401 403.234 560.201 401.167 560.201 398.7V398H561.201ZM566.101 378V389.7H565.101V388.5C565.101 385.434 564.167 382.967 562.301 381.1C560.501 379.234 558.034 378.267 554.901 378.2V378H566.101ZM566.101 372.2V375.1L553.901 374C555.367 374 556.901 373.9 558.501 373.7C560.167 373.5 561.701 373.267 563.101 373C564.501 372.734 565.501 372.467 566.101 372.2ZM523.801 436.7V444H515.801V443C515.801 443 516.001 443 516.401 443C516.867 443 517.101 443 517.101 443C518.834 443 520.301 442.4 521.501 441.2C522.767 439.934 523.434 438.434 523.501 436.7H523.801ZM523.801 381.3H523.501C523.434 379.567 522.767 378.1 521.501 376.9C520.301 375.634 518.834 375 517.101 375C517.101 375 516.867 375 516.401 375C516.001 375 515.801 375 515.801 375V374H523.801V381.3Z" fill="url(#paint9_linear_139_1951)"/>
<path d="M494.289 372.6L495.089 383.5L465.389 435C465.389 435 465.055 435.6 464.389 436.8C463.722 437.933 463.055 439.333 462.389 441C461.789 442.667 461.489 444.333 461.489 446H460.489L456.589 437.3L494.289 372.6ZM426.489 436.7V444H415.389V443C415.455 443 415.755 443 416.289 443C416.755 443 416.989 443 416.989 443C418.789 443 420.389 442.467 421.789 441.4C423.189 440.267 424.022 438.7 424.289 436.7H426.489ZM430.889 438.3C430.889 438.367 430.889 438.433 430.889 438.5C430.889 438.567 430.889 438.667 430.889 438.8C430.889 439.867 431.255 440.867 431.989 441.8C432.789 442.667 433.722 443.1 434.789 443.1H436.289V444H430.189V438.3H430.889ZM432.589 372.6H433.489L436.989 382.6L430.289 444H423.289L432.589 372.6ZM433.489 372.6L466.189 426.3L460.489 446L430.889 396.3L433.489 372.6ZM495.189 372.6L504.689 444H488.589L483.589 398L494.289 372.6H495.189ZM501.589 436.7H503.689C504.022 438.7 504.889 440.267 506.289 441.4C507.689 442.467 509.255 443 510.989 443C510.989 443 511.255 443 511.789 443C512.322 443 512.589 443 512.589 443V444H501.589V436.7ZM487.989 438.3H488.689V444H482.589V443.1H484.089C485.222 443.1 486.155 442.667 486.889 441.8C487.622 440.867 487.989 439.867 487.989 438.8C487.989 438.667 487.989 438.567 487.989 438.5C487.989 438.433 487.989 438.367 487.989 438.3Z" fill="url(#paint10_linear_139_1951)"/>
<path d="M373.476 372.6C381.476 372.6 388.409 374.1 394.276 377.1C400.209 380.033 404.776 384.2 407.976 389.6C411.242 395 412.876 401.467 412.876 409C412.876 416.467 411.242 422.933 407.976 428.4C404.776 433.8 400.209 438 394.276 441C388.409 443.933 381.476 445.4 373.476 445.4C365.476 445.4 358.509 443.933 352.576 441C346.709 438 342.176 433.8 338.976 428.4C335.776 423 334.176 416.533 334.176 409C334.176 401.533 335.776 395.1 338.976 389.7C342.176 384.233 346.709 380.033 352.576 377.1C358.509 374.1 365.476 372.6 373.476 372.6ZM373.476 441.2C378.209 441.2 382.276 439.9 385.676 437.3C389.076 434.633 391.709 430.9 393.576 426.1C395.442 421.3 396.376 415.6 396.376 409C396.376 402.4 395.442 396.7 393.576 391.9C391.709 387.1 389.076 383.4 385.676 380.8C382.276 378.133 378.209 376.8 373.476 376.8C368.809 376.8 364.742 378.133 361.276 380.8C357.876 383.4 355.242 387.1 353.376 391.9C351.509 396.7 350.576 402.4 350.576 409C350.576 415.6 351.509 421.3 353.376 426.1C355.242 430.9 357.876 434.633 361.276 437.3C364.742 439.9 368.809 441.2 373.476 441.2Z" fill="url(#paint11_linear_139_1951)"/>
<path d="M319.299 374V444H304.299V374H319.299ZM271.899 374V444H256.899V374H271.899ZM305.199 407V411.3H270.899V407H305.199ZM257.199 436.7V444H249.199V443C249.199 443 249.399 443 249.799 443C250.266 443 250.499 443 250.499 443C252.233 443 253.699 442.4 254.899 441.2C256.166 439.933 256.833 438.433 256.899 436.7H257.199ZM257.199 381.3H256.899C256.833 379.567 256.166 378.1 254.899 376.9C253.699 375.633 252.233 375 250.499 375C250.499 375 250.266 375 249.799 375C249.399 375 249.199 375 249.199 375V374H257.199V381.3ZM271.599 436.7H271.899C271.966 438.433 272.599 439.933 273.799 441.2C275.066 442.4 276.566 443 278.299 443C278.299 443 278.499 443 278.899 443C279.299 443 279.533 443 279.599 443V444H271.599V436.7ZM271.599 381.3V374H279.599V375C279.533 375 279.299 375 278.899 375C278.499 375 278.299 375 278.299 375C276.566 375 275.066 375.633 273.799 376.9C272.599 378.1 271.966 379.567 271.899 381.3H271.599ZM304.599 436.7V444H296.599V443C296.666 443 296.899 443 297.299 443C297.699 443 297.899 443 297.899 443C299.633 443 301.133 442.4 302.399 441.2C303.666 439.933 304.299 438.433 304.299 436.7H304.599ZM304.599 381.3H304.299C304.299 379.567 303.666 378.1 302.399 376.9C301.133 375.633 299.633 375 297.899 375C297.899 375 297.699 375 297.299 375C296.899 375 296.666 375 296.599 375V374H304.599V381.3ZM318.999 436.7H319.299C319.366 438.433 319.999 439.933 321.199 441.2C322.466 442.4 323.966 443 325.699 443C325.699 443 325.899 443 326.299 443C326.766 443 326.999 443 326.999 443V444H318.999V436.7ZM318.999 381.3V374H326.999V375C326.999 375 326.766 375 326.299 375C325.899 375 325.699 375 325.699 375C323.966 375 322.466 375.633 321.199 376.9C319.999 378.1 319.366 379.567 319.299 381.3H318.999Z" fill="url(#paint12_linear_139_1951)"/>
<path d="M709.5 244V298L670.5 273V298L646 282V257.5L399 103L200 238V508.5H430.5V533H175.5V255L134 284V233L215 177.5V99H261L260.5 146.5L399 50L709.5 244Z" fill="url(#paint13_linear_139_1951)"/>
<path d="M610.517 193.5L588 180.5V159.5L403.5 236V312L380.5 322V220.5L610.517 125V193.5Z" fill="url(#paint14_linear_139_1951)"/>
<path d="M378 496V553.181L377 593.5L402 580.5L401.489 507.639L378 496Z" fill="url(#paint15_linear_139_1951)"/>
<defs>
<linearGradient id="paint0_linear_139_1951" x1="330" y1="183.5" x2="-51.5" y2="462.5" gradientUnits="userSpaceOnUse">
<stop offset="0.48299" stop-color="#D5D5D5"/>
<stop offset="1" stop-color="#5B5B5B"/>
</linearGradient>
<linearGradient id="paint1_linear_139_1951" x1="330" y1="183.5" x2="-51.5" y2="462.5" gradientUnits="userSpaceOnUse">
<stop offset="0.48299" stop-color="#D5D5D5"/>
<stop offset="1" stop-color="#5B5B5B"/>
</linearGradient>
<linearGradient id="paint2_linear_139_1951" x1="932.68" y1="192.786" x2="959.635" y2="414.382" gradientUnits="userSpaceOnUse">
<stop offset="0.316166" stop-color="#CBA23D"/>
<stop offset="0.505896" stop-color="#CDA443"/>
<stop offset="0.640626" stop-color="#F1E4B6"/>
<stop offset="1" stop-color="#CBA23D"/>
</linearGradient>
<linearGradient id="paint3_linear_139_1951" x1="932.68" y1="192.786" x2="959.635" y2="414.382" gradientUnits="userSpaceOnUse">
<stop offset="0.316166" stop-color="#CBA23D"/>
<stop offset="0.505896" stop-color="#CDA443"/>
<stop offset="0.640626" stop-color="#F1E4B6"/>
<stop offset="1" stop-color="#CBA23D"/>
</linearGradient>
<linearGradient id="paint4_linear_139_1951" x1="932.68" y1="192.786" x2="959.635" y2="414.382" gradientUnits="userSpaceOnUse">
<stop offset="0.316166" stop-color="#CBA23D"/>
<stop offset="0.505896" stop-color="#CDA443"/>
<stop offset="0.640626" stop-color="#F1E4B6"/>
<stop offset="1" stop-color="#CBA23D"/>
</linearGradient>
<linearGradient id="paint5_linear_139_1951" x1="932.681" y1="192.786" x2="959.636" y2="414.382" gradientUnits="userSpaceOnUse">
<stop offset="0.316166" stop-color="#CBA23D"/>
<stop offset="0.505896" stop-color="#CDA443"/>
<stop offset="0.640626" stop-color="#F1E4B6"/>
<stop offset="1" stop-color="#CBA23D"/>
</linearGradient>
<linearGradient id="paint6_linear_139_1951" x1="932.681" y1="192.786" x2="959.636" y2="414.382" gradientUnits="userSpaceOnUse">
<stop offset="0.316166" stop-color="#CBA23D"/>
<stop offset="0.505896" stop-color="#CDA443"/>
<stop offset="0.640626" stop-color="#F1E4B6"/>
<stop offset="1" stop-color="#CBA23D"/>
</linearGradient>
<linearGradient id="paint7_linear_139_1951" x1="932.68" y1="192.786" x2="959.635" y2="414.382" gradientUnits="userSpaceOnUse">
<stop offset="0.316166" stop-color="#CBA23D"/>
<stop offset="0.505896" stop-color="#CDA443"/>
<stop offset="0.640626" stop-color="#F1E4B6"/>
<stop offset="1" stop-color="#CBA23D"/>
</linearGradient>
<linearGradient id="paint8_linear_139_1951" x1="932.68" y1="192.786" x2="959.635" y2="414.382" gradientUnits="userSpaceOnUse">
<stop offset="0.316166" stop-color="#CBA23D"/>
<stop offset="0.505896" stop-color="#CDA443"/>
<stop offset="0.640626" stop-color="#F1E4B6"/>
<stop offset="1" stop-color="#CBA23D"/>
</linearGradient>
<linearGradient id="paint9_linear_139_1951" x1="932.68" y1="192.786" x2="959.635" y2="414.382" gradientUnits="userSpaceOnUse">
<stop offset="0.316166" stop-color="#CBA23D"/>
<stop offset="0.505896" stop-color="#CDA443"/>
<stop offset="0.640626" stop-color="#F1E4B6"/>
<stop offset="1" stop-color="#CBA23D"/>
</linearGradient>
<linearGradient id="paint10_linear_139_1951" x1="932.68" y1="192.786" x2="959.635" y2="414.382" gradientUnits="userSpaceOnUse">
<stop offset="0.316166" stop-color="#CBA23D"/>
<stop offset="0.505896" stop-color="#CDA443"/>
<stop offset="0.640626" stop-color="#F1E4B6"/>
<stop offset="1" stop-color="#CBA23D"/>
</linearGradient>
<linearGradient id="paint11_linear_139_1951" x1="932.679" y1="192.786" x2="959.634" y2="414.382" gradientUnits="userSpaceOnUse">
<stop offset="0.316166" stop-color="#CBA23D"/>
<stop offset="0.505896" stop-color="#CDA443"/>
<stop offset="0.640626" stop-color="#F1E4B6"/>
<stop offset="1" stop-color="#CBA23D"/>
</linearGradient>
<linearGradient id="paint12_linear_139_1951" x1="932.68" y1="192.786" x2="959.635" y2="414.382" gradientUnits="userSpaceOnUse">
<stop offset="0.316166" stop-color="#CBA23D"/>
<stop offset="0.505896" stop-color="#CDA443"/>
<stop offset="0.640626" stop-color="#F1E4B6"/>
<stop offset="1" stop-color="#CBA23D"/>
</linearGradient>
<linearGradient id="paint13_linear_139_1951" x1="692" y1="133" x2="135.74" y2="416.55" gradientUnits="userSpaceOnUse">
<stop offset="0.0512252" stop-color="#CBA23D"/>
<stop offset="0.447115" stop-color="#E0CB80"/>
<stop offset="1" stop-color="#CBA23D"/>
</linearGradient>
<linearGradient id="paint14_linear_139_1951" x1="525" y1="94" x2="336.462" y2="360.366" gradientUnits="userSpaceOnUse">
<stop offset="0.48299" stop-color="#D5D5D5"/>
<stop offset="1" stop-color="#5B5B5B"/>
</linearGradient>
<linearGradient id="paint15_linear_139_1951" x1="441.763" y1="490.888" x2="344.862" y2="476.198" gradientUnits="userSpaceOnUse">
<stop offset="0.48299" stop-color="#D5D5D5"/>
<stop offset="1" stop-color="#5B5B5B"/>
</linearGradient>
</defs>
</svg>
