<svg width="1175" height="1170" viewBox="0 0 1175 1170" fill="none" xmlns="http://www.w3.org/2000/svg">
<rect width="1175" height="1170" rx="585" fill="#090808"/>
<path d="M1129 221H21V886H1129V221Z" fill="black"/>
<path d="M631.517 414.5L609 401.5V380.5L424.5 457V533L401.5 543V441.5L631.517 346V414.5Z" fill="url(#paint0_linear_2104_1938)"/>
<path d="M71 639.5L199 593.5V627.5L146 647.5L360.5 795.5L399 775V718L422.5 731V801.5L358.5 836.5L71 639.5Z" fill="url(#paint1_linear_2104_1938)"/>
<path d="M1044.48 593.6C1045.81 593.6 1047.45 593.667 1049.38 593.8C1051.38 593.933 1053.41 594.133 1055.48 594.4C1057.61 594.6 1059.45 594.833 1060.98 595.1C1062.58 595.3 1063.68 595.533 1064.28 595.8L1063.08 609.3H1062.08C1062.08 605.833 1060.78 603.067 1058.18 601C1055.65 598.867 1052.25 597.8 1047.98 597.8C1044.11 597.8 1040.98 598.733 1038.58 600.6C1036.25 602.467 1035.01 604.733 1034.88 607.4C1034.81 609.4 1035.45 611.133 1036.78 612.6C1038.11 614.067 1039.81 615.433 1041.88 616.7L1060.98 629.1C1064.05 630.833 1066.35 633.1 1067.88 635.9C1069.48 638.7 1070.18 641.967 1069.98 645.7C1069.65 652.233 1067.15 657.333 1062.48 661C1057.81 664.6 1051.48 666.4 1043.48 666.4C1040.55 666.4 1037.68 666.133 1034.88 665.6C1032.15 665.133 1029.71 664.467 1027.58 663.6C1025.45 662.667 1023.75 661.567 1022.48 660.3C1021.95 658.833 1021.71 657.067 1021.78 655C1021.85 652.933 1022.15 650.833 1022.68 648.7C1023.28 646.567 1024.01 644.8 1024.88 643.4H1025.78C1025.51 646.8 1026.11 649.967 1027.58 652.9C1029.11 655.767 1031.31 658.067 1034.18 659.8C1037.11 661.467 1040.58 662.267 1044.58 662.2C1048.98 662.133 1052.38 661.033 1054.78 658.9C1057.18 656.7 1058.38 654.067 1058.38 651C1058.38 648.933 1057.75 647.067 1056.48 645.4C1055.28 643.733 1053.28 642.133 1050.48 640.6L1032.98 629C1029.45 627 1026.88 624.433 1025.28 621.3C1023.68 618.167 1023.05 614.767 1023.38 611.1C1023.71 607.633 1024.75 604.6 1026.48 602C1028.21 599.333 1030.58 597.267 1033.58 595.8C1036.65 594.333 1040.28 593.6 1044.48 593.6ZM1064.38 594.6L1064.18 596.7H1052.38V594.6H1064.38Z" fill="url(#paint2_linear_2104_1938)"/>
<path d="M986.668 593.6C988.001 593.6 989.635 593.667 991.568 593.8C993.568 593.933 995.601 594.133 997.668 594.4C999.801 594.6 1001.64 594.833 1003.17 595.1C1004.77 595.3 1005.87 595.533 1006.47 595.8L1005.27 609.3H1004.27C1004.27 605.833 1002.97 603.067 1000.37 601C997.835 598.867 994.435 597.8 990.168 597.8C986.301 597.8 983.168 598.733 980.768 600.6C978.435 602.467 977.201 604.733 977.068 607.4C977.001 609.4 977.635 611.133 978.968 612.6C980.301 614.067 982.001 615.433 984.068 616.7L1003.17 629.1C1006.24 630.833 1008.54 633.1 1010.07 635.9C1011.67 638.7 1012.37 641.967 1012.17 645.7C1011.84 652.233 1009.34 657.333 1004.67 661C1000 664.6 993.668 666.4 985.668 666.4C982.735 666.4 979.868 666.133 977.068 665.6C974.335 665.133 971.901 664.467 969.768 663.6C967.635 662.667 965.935 661.567 964.668 660.3C964.135 658.833 963.901 657.067 963.968 655C964.035 652.933 964.335 650.833 964.868 648.7C965.468 646.567 966.201 644.8 967.068 643.4H967.968C967.701 646.8 968.301 649.967 969.768 652.9C971.301 655.767 973.501 658.067 976.368 659.8C979.301 661.467 982.768 662.267 986.768 662.2C991.168 662.133 994.568 661.033 996.968 658.9C999.368 656.7 1000.57 654.067 1000.57 651C1000.57 648.933 999.935 647.067 998.668 645.4C997.468 643.733 995.468 642.133 992.668 640.6L975.168 629C971.635 627 969.068 624.433 967.468 621.3C965.868 618.167 965.235 614.767 965.568 611.1C965.901 607.633 966.935 604.6 968.668 602C970.401 599.333 972.768 597.267 975.768 595.8C978.835 594.333 982.468 593.6 986.668 593.6ZM1006.57 594.6L1006.37 596.7H994.568V594.6H1006.57Z" fill="url(#paint3_linear_2104_1938)"/>
<path d="M922.684 595V665H907.684V595H922.684ZM949.084 660.7L951.484 665H922.384V660.7H949.084ZM945.384 628.4V632.6H922.384V628.4H945.384ZM950.284 595V599.3H922.384V595H950.284ZM956.384 644.5L951.784 665H932.184L935.784 660.7C939.118 660.7 942.051 660.067 944.584 658.8C947.118 657.467 949.284 655.6 951.084 653.2C952.884 650.734 954.318 647.834 955.384 644.5H956.384ZM945.384 632.4V642H944.384V641.2C944.384 638.734 943.584 636.7 941.984 635.1C940.384 633.5 938.351 632.667 935.884 632.6V632.4H945.384ZM945.384 619V628.6H935.884V628.4C938.351 628.334 940.384 627.5 941.984 625.9C943.584 624.234 944.384 622.167 944.384 619.7V619H945.384ZM950.284 599V610.7H949.284V609.5C949.284 606.434 948.351 603.967 946.484 602.1C944.684 600.234 942.218 599.267 939.084 599.2V599H950.284ZM950.284 593.2V596.1L938.084 595C939.551 595 941.084 594.9 942.684 594.7C944.351 594.5 945.884 594.267 947.284 594C948.684 593.734 949.684 593.467 950.284 593.2ZM907.984 657.7V665H899.984V664C899.984 664 900.184 664 900.584 664C901.051 664 901.284 664 901.284 664C903.018 664 904.484 663.4 905.684 662.2C906.951 660.934 907.618 659.434 907.684 657.7H907.984ZM907.984 602.3H907.684C907.618 600.567 906.951 599.1 905.684 597.9C904.484 596.634 903.018 596 901.284 596C901.284 596 901.051 596 900.584 596C900.184 596 899.984 596 899.984 596V595H907.984V602.3Z" fill="url(#paint4_linear_2104_1938)"/>
<path d="M848.15 595H861.05C864.05 595 866.983 595.333 869.85 596C872.717 596.667 875.25 597.733 877.45 599.2C879.717 600.667 881.517 602.6 882.85 605C884.183 607.4 884.85 610.367 884.85 613.9C884.85 616.7 884.25 619.5 883.05 622.3C881.917 625.033 880.15 627.4 877.75 629.4C875.35 631.333 872.25 632.5 868.45 632.9C870.583 633.567 872.517 634.767 874.25 636.5C876.05 638.233 877.517 639.967 878.65 641.7C878.717 641.833 879.083 642.433 879.75 643.5C880.483 644.567 881.35 645.9 882.35 647.5C883.417 649.033 884.517 650.6 885.65 652.2C886.783 653.8 887.817 655.2 888.75 656.4C890.217 658.2 891.55 659.667 892.75 660.8C893.95 661.867 895.217 662.667 896.55 663.2C897.883 663.667 899.417 663.933 901.15 664V665H891.35C887.75 665 884.483 664.7 881.55 664.1C878.617 663.433 876.017 662.333 873.75 660.8C871.483 659.267 869.517 657.2 867.85 654.6C867.317 653.8 866.717 652.8 866.05 651.6C865.45 650.333 864.817 649 864.15 647.6C863.483 646.2 862.817 644.867 862.15 643.6C861.55 642.267 861.017 641.067 860.55 640C860.083 638.933 859.75 638.1 859.55 637.5C858.683 635.367 857.65 633.767 856.45 632.7C855.317 631.633 854.083 631 852.75 630.8V629.8C852.95 629.8 853.35 629.8 853.95 629.8C854.55 629.8 855.183 629.8 855.85 629.8C857.65 629.8 859.383 629.433 861.05 628.7C862.783 627.967 864.317 626.767 865.65 625.1C866.983 623.433 867.917 621.133 868.45 618.2C868.583 617.6 868.683 616.9 868.75 616.1C868.883 615.3 868.917 614.4 868.85 613.4C868.65 608.6 867.45 605.1 865.25 602.9C863.05 600.633 860.317 599.467 857.05 599.4C856.117 599.333 855.083 599.333 853.95 599.4C852.883 599.4 851.883 599.4 850.95 599.4C850.083 599.4 849.483 599.4 849.15 599.4C849.15 599.333 849.05 598.967 848.85 598.3C848.717 597.567 848.55 596.833 848.35 596.1C848.217 595.367 848.15 595 848.15 595ZM849.45 595V665H834.45V595H849.45ZM834.75 657.7V665H826.75V664C826.817 664 827.017 664 827.35 664C827.75 664 827.983 664 828.05 664C829.783 664 831.25 663.4 832.45 662.2C833.717 660.933 834.383 659.433 834.45 657.7H834.75ZM834.75 602.3H834.45C834.383 600.567 833.717 599.1 832.45 597.9C831.25 596.633 829.783 596 828.05 596C827.983 596 827.75 596 827.35 596C827.017 596 826.817 596 826.75 596V595H834.75V602.3ZM849.15 657.7H849.45C849.45 659.433 850.083 660.933 851.35 662.2C852.617 663.4 854.117 664 855.85 664C855.983 664 856.217 664 856.55 664C856.883 664 857.05 664 857.05 664V665H849.15V657.7Z" fill="url(#paint5_linear_2104_1938)"/>
<path d="M782.72 595H794.72C800.454 595 805.087 595.833 808.62 597.5C812.22 599.167 814.887 601.467 816.62 604.4C818.42 607.267 819.387 610.533 819.52 614.2C819.654 617.6 819.087 620.7 817.82 623.5C816.554 626.3 814.82 628.633 812.62 630.5C810.42 632.367 807.887 633.733 805.02 634.6C802.22 635.4 799.287 635.6 796.22 635.2C793.22 634.733 790.287 633.567 787.42 631.7V630.7C787.42 630.7 787.82 630.7 788.62 630.7C789.487 630.7 790.554 630.567 791.82 630.3C793.154 630.033 794.52 629.533 795.92 628.8C797.387 628.067 798.754 626.933 800.02 625.4C801.287 623.867 802.254 621.833 802.92 619.3C803.187 618.433 803.354 617.467 803.42 616.4C803.554 615.267 803.587 614.233 803.52 613.3C803.454 609.033 802.287 605.633 800.02 603.1C797.82 600.5 794.687 599.2 790.62 599.2H783.72C783.72 599.2 783.62 598.867 783.42 598.2C783.287 597.467 783.12 596.767 782.92 596.1C782.787 595.367 782.72 595 782.72 595ZM784.02 595V665H769.02V595H784.02ZM769.32 657.7V665H761.32V664C761.387 664 761.587 664 761.92 664C762.32 664 762.554 664 762.62 664C764.354 664 765.82 663.4 767.02 662.2C768.287 660.933 768.954 659.433 769.02 657.7H769.32ZM769.32 602.3H769.02C769.02 600.567 768.387 599.1 767.12 597.9C765.854 596.633 764.354 596 762.62 596C762.554 596 762.354 596 762.02 596C761.687 596 761.487 596 761.42 596L761.32 595H769.32V602.3ZM783.72 657.7H784.02C784.087 659.433 784.72 660.933 785.92 662.2C787.187 663.4 788.687 664 790.42 664C790.487 664 790.687 664 791.02 664C791.42 664 791.654 664 791.72 664V665H783.72V657.7Z" fill="url(#paint6_linear_2104_1938)"/>
<path d="M707.168 595L752.468 664.9H734.768L689.668 595H707.168ZM701.468 657.8C700.868 658.733 700.668 659.7 700.868 660.7C701.135 661.633 701.668 662.433 702.468 663.1C703.268 663.7 704.102 664 704.968 664C704.968 664 705.168 664 705.568 664C706.035 664 706.268 664 706.268 664V665H681.568V664H682.968C685.102 664 687.035 663.4 688.768 662.2C690.502 661 691.935 659.633 693.068 658.1L701.468 657.8ZM713.768 628.8L718.668 632.6L696.568 665H688.168L713.768 628.8ZM730.168 657.8L748.068 658.2C749.135 659.733 750.568 661.1 752.368 662.3C754.168 663.433 756.102 664 758.168 664H759.568V665H725.468V664C725.468 664 725.668 664 726.068 664C726.535 664 726.768 664 726.768 664C728.102 664 729.202 663.333 730.068 662C731.002 660.667 731.035 659.267 730.168 657.8ZM716.568 595V596C716.568 596 716.368 596 715.968 596C715.568 596 715.368 596 715.368 596C714.435 596 713.568 596.333 712.768 597C712.035 597.6 711.568 598.4 711.368 599.4C711.168 600.333 711.335 601.267 711.868 602.2L694.068 601.9C693.002 600.367 691.568 599 689.768 597.8C688.035 596.6 686.102 596 683.968 596H682.568V595H716.568ZM749.568 595L725.368 630.9L721.268 626L741.068 595H749.568ZM756.368 595V596H754.968C752.902 596 750.968 596.6 749.168 597.8C747.435 599 746.002 600.367 744.868 601.9L736.468 602.2C737.068 601.267 737.235 600.333 736.968 599.4C736.768 598.4 736.302 597.6 735.568 597C734.835 596.333 734.002 596 733.068 596C733.068 596 732.868 596 732.468 596C732.068 596 731.868 596 731.868 596L731.768 595H756.368Z" fill="url(#paint7_linear_2104_1938)"/>
<path d="M647.684 595V665H632.684V595H647.684ZM674.084 660.7L676.484 665H647.384V660.7H674.084ZM670.384 628.4V632.6H647.384V628.4H670.384ZM675.284 595V599.3H647.384V595H675.284ZM681.384 644.5L676.784 665H657.184L660.784 660.7C664.118 660.7 667.051 660.067 669.584 658.8C672.118 657.467 674.284 655.6 676.084 653.2C677.884 650.734 679.318 647.834 680.384 644.5H681.384ZM670.384 632.4V642H669.384V641.2C669.384 638.734 668.584 636.7 666.984 635.1C665.384 633.5 663.351 632.667 660.884 632.6V632.4H670.384ZM670.384 619V628.6H660.884V628.4C663.351 628.334 665.384 627.5 666.984 625.9C668.584 624.234 669.384 622.167 669.384 619.7V619H670.384ZM675.284 599V610.7H674.284V609.5C674.284 606.434 673.351 603.967 671.484 602.1C669.684 600.234 667.218 599.267 664.084 599.2V599H675.284ZM675.284 593.2V596.1L663.084 595C664.551 595 666.084 594.9 667.684 594.7C669.351 594.5 670.884 594.267 672.284 594C673.684 593.734 674.684 593.467 675.284 593.2ZM632.984 657.7V665H624.984V664C624.984 664 625.184 664 625.584 664C626.051 664 626.284 664 626.284 664C628.018 664 629.484 663.4 630.684 662.2C631.951 660.934 632.618 659.434 632.684 657.7H632.984ZM632.984 602.3H632.684C632.618 600.567 631.951 599.1 630.684 597.9C629.484 596.634 628.018 596 626.284 596C626.284 596 626.051 596 625.584 596C625.184 596 624.984 596 624.984 596V595H632.984V602.3Z" fill="url(#paint8_linear_2104_1938)"/>
<path d="M559.501 595V665H544.501V595H559.501ZM585.901 660.7L588.301 665H559.201V660.7H585.901ZM582.201 628.4V632.6H559.201V628.4H582.201ZM587.101 595V599.3H559.201V595H587.101ZM593.201 644.5L588.601 665H569.001L572.601 660.7C575.934 660.7 578.867 660.067 581.401 658.8C583.934 657.467 586.101 655.6 587.901 653.2C589.701 650.734 591.134 647.834 592.201 644.5H593.201ZM582.201 632.4V642H581.201V641.2C581.201 638.734 580.401 636.7 578.801 635.1C577.201 633.5 575.167 632.667 572.701 632.6V632.4H582.201ZM582.201 619V628.6H572.701V628.4C575.167 628.334 577.201 627.5 578.801 625.9C580.401 624.234 581.201 622.167 581.201 619.7V619H582.201ZM587.101 599V610.7H586.101V609.5C586.101 606.434 585.167 603.967 583.301 602.1C581.501 600.234 579.034 599.267 575.901 599.2V599H587.101ZM587.101 593.2V596.1L574.901 595C576.367 595 577.901 594.9 579.501 594.7C581.167 594.5 582.701 594.267 584.101 594C585.501 593.734 586.501 593.467 587.101 593.2ZM544.801 657.7V665H536.801V664C536.801 664 537.001 664 537.401 664C537.867 664 538.101 664 538.101 664C539.834 664 541.301 663.4 542.501 662.2C543.767 660.934 544.434 659.434 544.501 657.7H544.801ZM544.801 602.3H544.501C544.434 600.567 543.767 599.1 542.501 597.9C541.301 596.634 539.834 596 538.101 596C538.101 596 537.867 596 537.401 596C537.001 596 536.801 596 536.801 596V595H544.801V602.3Z" fill="url(#paint9_linear_2104_1938)"/>
<path d="M515.289 593.6L516.089 604.5L486.389 656C486.389 656 486.055 656.6 485.389 657.8C484.722 658.933 484.055 660.333 483.389 662C482.789 663.667 482.489 665.333 482.489 667H481.489L477.589 658.3L515.289 593.6ZM447.489 657.7V665H436.389V664C436.455 664 436.755 664 437.289 664C437.755 664 437.989 664 437.989 664C439.789 664 441.389 663.467 442.789 662.4C444.189 661.267 445.022 659.7 445.289 657.7H447.489ZM451.889 659.3C451.889 659.367 451.889 659.433 451.889 659.5C451.889 659.567 451.889 659.667 451.889 659.8C451.889 660.867 452.255 661.867 452.989 662.8C453.789 663.667 454.722 664.1 455.789 664.1H457.289V665H451.189V659.3H451.889ZM453.589 593.6H454.489L457.989 603.6L451.289 665H444.289L453.589 593.6ZM454.489 593.6L487.189 647.3L481.489 667L451.889 617.3L454.489 593.6ZM516.189 593.6L525.689 665H509.589L504.589 619L515.289 593.6H516.189ZM522.589 657.7H524.689C525.022 659.7 525.889 661.267 527.289 662.4C528.689 663.467 530.255 664 531.989 664C531.989 664 532.255 664 532.789 664C533.322 664 533.589 664 533.589 664V665H522.589V657.7ZM508.989 659.3H509.689V665H503.589V664.1H505.089C506.222 664.1 507.155 663.667 507.889 662.8C508.622 661.867 508.989 660.867 508.989 659.8C508.989 659.667 508.989 659.567 508.989 659.5C508.989 659.433 508.989 659.367 508.989 659.3Z" fill="url(#paint10_linear_2104_1938)"/>
<path d="M394.476 593.6C402.476 593.6 409.409 595.1 415.276 598.1C421.209 601.033 425.776 605.2 428.976 610.6C432.242 616 433.876 622.467 433.876 630C433.876 637.467 432.242 643.933 428.976 649.4C425.776 654.8 421.209 659 415.276 662C409.409 664.933 402.476 666.4 394.476 666.4C386.476 666.4 379.509 664.933 373.576 662C367.709 659 363.176 654.8 359.976 649.4C356.776 644 355.176 637.533 355.176 630C355.176 622.533 356.776 616.1 359.976 610.7C363.176 605.233 367.709 601.033 373.576 598.1C379.509 595.1 386.476 593.6 394.476 593.6ZM394.476 662.2C399.209 662.2 403.276 660.9 406.676 658.3C410.076 655.633 412.709 651.9 414.576 647.1C416.442 642.3 417.376 636.6 417.376 630C417.376 623.4 416.442 617.7 414.576 612.9C412.709 608.1 410.076 604.4 406.676 601.8C403.276 599.133 399.209 597.8 394.476 597.8C389.809 597.8 385.742 599.133 382.276 601.8C378.876 604.4 376.242 608.1 374.376 612.9C372.509 617.7 371.576 623.4 371.576 630C371.576 636.6 372.509 642.3 374.376 647.1C376.242 651.9 378.876 655.633 382.276 658.3C385.742 660.9 389.809 662.2 394.476 662.2Z" fill="url(#paint11_linear_2104_1938)"/>
<path d="M340.299 595V665H325.299V595H340.299ZM292.899 595V665H277.899V595H292.899ZM326.199 628V632.3H291.899V628H326.199ZM278.199 657.7V665H270.199V664C270.199 664 270.399 664 270.799 664C271.266 664 271.499 664 271.499 664C273.233 664 274.699 663.4 275.899 662.2C277.166 660.933 277.833 659.433 277.899 657.7H278.199ZM278.199 602.3H277.899C277.833 600.567 277.166 599.1 275.899 597.9C274.699 596.633 273.233 596 271.499 596C271.499 596 271.266 596 270.799 596C270.399 596 270.199 596 270.199 596V595H278.199V602.3ZM292.599 657.7H292.899C292.966 659.433 293.599 660.933 294.799 662.2C296.066 663.4 297.566 664 299.299 664C299.299 664 299.499 664 299.899 664C300.299 664 300.533 664 300.599 664V665H292.599V657.7ZM292.599 602.3V595H300.599V596C300.533 596 300.299 596 299.899 596C299.499 596 299.299 596 299.299 596C297.566 596 296.066 596.633 294.799 597.9C293.599 599.1 292.966 600.567 292.899 602.3H292.599ZM325.599 657.7V665H317.599V664C317.666 664 317.899 664 318.299 664C318.699 664 318.899 664 318.899 664C320.633 664 322.133 663.4 323.399 662.2C324.666 660.933 325.299 659.433 325.299 657.7H325.599ZM325.599 602.3H325.299C325.299 600.567 324.666 599.1 323.399 597.9C322.133 596.633 320.633 596 318.899 596C318.899 596 318.699 596 318.299 596C317.899 596 317.666 596 317.599 596V595H325.599V602.3ZM339.999 657.7H340.299C340.366 659.433 340.999 660.933 342.199 662.2C343.466 663.4 344.966 664 346.699 664C346.699 664 346.899 664 347.299 664C347.766 664 347.999 664 347.999 664V665H339.999V657.7ZM339.999 602.3V595H347.999V596C347.999 596 347.766 596 347.299 596C346.899 596 346.699 596 346.699 596C344.966 596 343.466 596.633 342.199 597.9C340.999 599.1 340.366 600.567 340.299 602.3H339.999Z" fill="url(#paint12_linear_2104_1938)"/>
<path d="M730.5 465V519L691.5 494V519L667 503V478.5L420 324L221 459V729.5H451.5V754H196.5V476L155 505V454L236 398.5V320H282L281.5 367.5L420 271L730.5 465Z" fill="url(#paint13_linear_2104_1938)"/>
<path d="M631.517 414.5L609 401.5V380.5L424.5 457V533L401.5 543V441.5L631.517 346V414.5Z" fill="url(#paint14_linear_2104_1938)"/>
<path d="M399 717V774.181L398 814.5L423 801.5L422.489 728.639L399 717Z" fill="url(#paint15_linear_2104_1938)"/>
<defs>
<linearGradient id="paint0_linear_2104_1938" x1="351" y1="404.5" x2="-30.5" y2="683.5" gradientUnits="userSpaceOnUse">
<stop offset="0.48299" stop-color="#F8F8F8"/>
<stop offset="1" stop-color="#A3A3A5"/>
</linearGradient>
<linearGradient id="paint1_linear_2104_1938" x1="351" y1="404.5" x2="-30.5" y2="683.5" gradientUnits="userSpaceOnUse">
<stop offset="0.48299" stop-color="#F8F8F8"/>
<stop offset="1" stop-color="#A3A3A5"/>
</linearGradient>
<linearGradient id="paint2_linear_2104_1938" x1="953.68" y1="413.786" x2="980.635" y2="635.382" gradientUnits="userSpaceOnUse">
<stop offset="0.316166" stop-color="#CBA23D"/>
<stop offset="0.505896" stop-color="#CDA443"/>
<stop offset="0.640626" stop-color="#F1E4B6"/>
<stop offset="1" stop-color="#CBA23D"/>
</linearGradient>
<linearGradient id="paint3_linear_2104_1938" x1="953.68" y1="413.786" x2="980.635" y2="635.382" gradientUnits="userSpaceOnUse">
<stop offset="0.316166" stop-color="#CBA23D"/>
<stop offset="0.505896" stop-color="#CDA443"/>
<stop offset="0.640626" stop-color="#F1E4B6"/>
<stop offset="1" stop-color="#CBA23D"/>
</linearGradient>
<linearGradient id="paint4_linear_2104_1938" x1="953.68" y1="413.786" x2="980.635" y2="635.382" gradientUnits="userSpaceOnUse">
<stop offset="0.316166" stop-color="#CBA23D"/>
<stop offset="0.505896" stop-color="#CDA443"/>
<stop offset="0.640626" stop-color="#F1E4B6"/>
<stop offset="1" stop-color="#CBA23D"/>
</linearGradient>
<linearGradient id="paint5_linear_2104_1938" x1="953.681" y1="413.786" x2="980.636" y2="635.382" gradientUnits="userSpaceOnUse">
<stop offset="0.316166" stop-color="#CBA23D"/>
<stop offset="0.505896" stop-color="#CDA443"/>
<stop offset="0.640626" stop-color="#F1E4B6"/>
<stop offset="1" stop-color="#CBA23D"/>
</linearGradient>
<linearGradient id="paint6_linear_2104_1938" x1="953.681" y1="413.786" x2="980.636" y2="635.382" gradientUnits="userSpaceOnUse">
<stop offset="0.316166" stop-color="#CBA23D"/>
<stop offset="0.505896" stop-color="#CDA443"/>
<stop offset="0.640626" stop-color="#F1E4B6"/>
<stop offset="1" stop-color="#CBA23D"/>
</linearGradient>
<linearGradient id="paint7_linear_2104_1938" x1="953.68" y1="413.786" x2="980.635" y2="635.382" gradientUnits="userSpaceOnUse">
<stop offset="0.316166" stop-color="#CBA23D"/>
<stop offset="0.505896" stop-color="#CDA443"/>
<stop offset="0.640626" stop-color="#F1E4B6"/>
<stop offset="1" stop-color="#CBA23D"/>
</linearGradient>
<linearGradient id="paint8_linear_2104_1938" x1="953.68" y1="413.786" x2="980.635" y2="635.382" gradientUnits="userSpaceOnUse">
<stop offset="0.316166" stop-color="#CBA23D"/>
<stop offset="0.505896" stop-color="#CDA443"/>
<stop offset="0.640626" stop-color="#F1E4B6"/>
<stop offset="1" stop-color="#CBA23D"/>
</linearGradient>
<linearGradient id="paint9_linear_2104_1938" x1="953.68" y1="413.786" x2="980.635" y2="635.382" gradientUnits="userSpaceOnUse">
<stop offset="0.316166" stop-color="#CBA23D"/>
<stop offset="0.505896" stop-color="#CDA443"/>
<stop offset="0.640626" stop-color="#F1E4B6"/>
<stop offset="1" stop-color="#CBA23D"/>
</linearGradient>
<linearGradient id="paint10_linear_2104_1938" x1="953.68" y1="413.786" x2="980.635" y2="635.382" gradientUnits="userSpaceOnUse">
<stop offset="0.316166" stop-color="#CBA23D"/>
<stop offset="0.505896" stop-color="#CDA443"/>
<stop offset="0.640626" stop-color="#F1E4B6"/>
<stop offset="1" stop-color="#CBA23D"/>
</linearGradient>
<linearGradient id="paint11_linear_2104_1938" x1="953.679" y1="413.786" x2="980.634" y2="635.382" gradientUnits="userSpaceOnUse">
<stop offset="0.316166" stop-color="#CBA23D"/>
<stop offset="0.505896" stop-color="#CDA443"/>
<stop offset="0.640626" stop-color="#F1E4B6"/>
<stop offset="1" stop-color="#CBA23D"/>
</linearGradient>
<linearGradient id="paint12_linear_2104_1938" x1="953.68" y1="413.786" x2="980.635" y2="635.382" gradientUnits="userSpaceOnUse">
<stop offset="0.316166" stop-color="#CBA23D"/>
<stop offset="0.505896" stop-color="#CDA443"/>
<stop offset="0.640626" stop-color="#F1E4B6"/>
<stop offset="1" stop-color="#CBA23D"/>
</linearGradient>
<linearGradient id="paint13_linear_2104_1938" x1="713" y1="354" x2="156.74" y2="637.55" gradientUnits="userSpaceOnUse">
<stop offset="0.0512252" stop-color="#CBA23D"/>
<stop offset="0.447115" stop-color="#E0CB80"/>
<stop offset="1" stop-color="#CBA23D"/>
</linearGradient>
<linearGradient id="paint14_linear_2104_1938" x1="516.402" y1="369.495" x2="362.21" y2="484.712" gradientUnits="userSpaceOnUse">
<stop offset="0.48299" stop-color="#F8F8F8"/>
<stop offset="1" stop-color="#A3A3A5"/>
</linearGradient>
<linearGradient id="paint15_linear_2104_1938" x1="426" y1="637.5" x2="318.115" y2="668.435" gradientUnits="userSpaceOnUse">
<stop offset="0.48299" stop-color="#F8F8F8"/>
<stop offset="1" stop-color="#A3A3A5"/>
</linearGradient>
</defs>
</svg>
