<svg xmlns="http://www.w3.org/2000/svg" aria-hidden="true" style="position:absolute;width:0;height:0;overflow:hidden">
  <defs>
    <symbol id="wall" viewBox="0 0 32 32">
      <path d="M31.5 20a.498.498 0 0 0-.5.5.498.498 0 0 1-.5.5h-7a.498.498 0 0 1-.5-.5v-3a.498.498 0 0 1 .5-.5.498.498 0 0 0 .5-.5.498.498 0 0 0-.5-.5c-.37.001-.727.14-1 .39a1.487 1.487 0 0 0-1-.39H6a.498.498 0 0 1-.5-.5v-3A.498.498 0 0 1 6 12h8.5a.498.498 0 0 0 .5-.5.498.498 0 0 0-.5-.5h-4a.498.498 0 0 1-.5-.5v-3a.498.498 0 0 1 .5-.5h1a.498.498 0 0 0 .5-.5.498.498 0 0 0-.5-.5h-1c-.37.001-.727.14-1 .39a1.487 1.487 0 0 0-1-.39h-7A1.503 1.503 0 0 0 0 7.5v3c.001.37.14.727.39 1-.25.273-.389.63-.39 1v3c.001.37.14.727.39 1-.25.273-.389.63-.39 1v3c.001.37.14.727.39 1-.25.273-.389.63-.39 1v3c.001.37.14.727.39 1-.25.273-.389.63-.39 1v3A1.503 1.503 0 0 0 1.5 32h7c.37-.001.727-.14 1-.39.273.25.63.389 1 .39h11c.37-.001.727-.14 1-.39.273.25.63.389 1 .39h7a1.503 1.503 0 0 0 1.5-1.5v-3a1.487 1.487 0 0 0-.39-1c.25-.273.389-.63.39-1v-3a1.487 1.487 0 0 0-.39-1c.25-.273.389-.63.39-1a.498.498 0 0 0-.5-.5zm-1 2a.498.498 0 0 1 .5.5v3a.498.498 0 0 1-.5.5H28a.498.498 0 0 1-.5-.5v-3a.498.498 0 0 1 .5-.5h2.5zM26 22a.498.498 0 0 1 .5.5v3a.498.498 0 0 1-.5.5h-7a.498.498 0 0 1-.5-.5v-3a.498.498 0 0 1 .5-.5h7zm-4.5-5a.498.498 0 0 1 .5.5v3a.498.498 0 0 1-.5.5h-7a.498.498 0 0 0-.5.5.498.498 0 0 0 .5.5H17a.498.498 0 0 1 .5.5v3a.498.498 0 0 1-.5.5H6a.498.498 0 0 1-.5-.5v-3A.498.498 0 0 1 6 22h6.5a.498.498 0 0 0 .5-.5.498.498 0 0 0-.5-.5h-2a.498.498 0 0 1-.5-.5v-3a.498.498 0 0 1 .5-.5h11zM1 25.5v-3a.498.498 0 0 1 .5-.5H4a.498.498 0 0 1 .5.5v3a.498.498 0 0 1-.5.5H1.5a.498.498 0 0 1-.5-.5zM8.5 17a.498.498 0 0 1 .5.5v3a.498.498 0 0 1-.5.5h-7a.498.498 0 0 1-.5-.5v-3a.498.498 0 0 1 .5-.5h7zM1 15.5v-3a.498.498 0 0 1 .5-.5H4a.498.498 0 0 1 .5.5v3a.498.498 0 0 1-.5.5H1.5a.498.498 0 0 1-.5-.5zm0-8a.498.498 0 0 1 .5-.5h7a.498.498 0 0 1 .5.5v3a.498.498 0 0 1-.5.5h-7a.498.498 0 0 1-.5-.5v-3zM8.5 31h-7a.498.498 0 0 1-.5-.5v-3a.498.498 0 0 1 .5-.5h7a.498.498 0 0 1 .5.5v3a.498.498 0 0 1-.5.5zm13 0h-11a.498.498 0 0 1-.5-.5v-3a.498.498 0 0 1 .5-.5h11a.498.498 0 0 1 .5.5v3a.498.498 0 0 1-.5.5zm9.5-.5a.498.498 0 0 1-.5.5h-7a.498.498 0 0 1-.5-.5v-3a.498.498 0 0 1 .5-.5h7a.498.498 0 0 1 .5.5v3z"/>
      <path d="M16.9 14.317a2.526 2.526 0 0 0 2.316 1.459 2.508 2.508 0 0 0 1.785-.747l1.935-1.936 1.465 1.465-.37.37a.5.5 0 0 0 0 .708l3.62 3.619a2.548 2.548 0 0 0 3.604-3.604l-3.619-3.62a.5.5 0 0 0-.708 0l-.37.37-1.464-1.465L27.03 9a2.553 2.553 0 0 0 .224-3.339 2.542 2.542 0 0 0-.935-.761l-4.103-1.944a.49.49 0 0 0-.387-.026c-.063.022-.121.056-.171.1s-.09.098-.118.159a.508.508 0 0 0-.017.387.488.488 0 0 0 .265.283l4.103 1.943a1.54 1.54 0 0 1 .86 1.135 1.548 1.548 0 0 1-.428 1.358l-1.935 1.936-1.094-1.094a1.56 1.56 0 0 0-2.156 0 1.513 1.513 0 0 0-.446 1.078 1.516 1.516 0 0 0 .446 1.077l1.094 1.094-1.936 1.935a1.545 1.545 0 0 1-1.358.428 1.558 1.558 0 0 1-1.135-.86L13.15 4.065a1.555 1.555 0 0 1 .304-1.756l.855-.855a1.554 1.554 0 0 1 1.756-.304l3.721 1.762a.49.49 0 0 0 .387.026c.063-.022.121-.056.171-.1s.09-.098.118-.159a.49.49 0 0 0 .017-.387.488.488 0 0 0-.265-.283L16.493.245a2.55 2.55 0 0 0-2.892.5l-.855.855a2.554 2.554 0 0 0-.5 2.892l4.654 9.825zm13.65 2.041a1.554 1.554 0 0 1 .064 2.253 1.55 1.55 0 0 1-2.253-.064l-3.266-3.266 2.189-2.189 3.266 3.266zm-8.86-6.144a.519.519 0 0 1 .323-.484.524.524 0 0 1 .571.114l3.266 3.266-.74.741-3.266-3.266a.519.519 0 0 1-.154-.37z"/>
    </symbol>
    <symbol id="arch" viewBox="0 0 32 32">
      <path d="m30.065 16.399-5.977-5.888V7.725h.67a1.375 1.375 0 0 0 0-2.748h-2.926L8.813.955a.377.377 0 0 0-.33.054L2.975 4.978h-.989a.375.375 0 0 0-.375.375V7.35c0 .207.168.375.375.375h1.118v1.571H1.987a.375.375 0 0 0-.375.375v2.123c0 .207.168.375.375.375h2.985a.375.375 0 0 0 .375-.375V9.671a.375.375 0 0 0-.375-.375H3.855V7.725h2.074l-.156.621a.376.376 0 0 0 .364.466h.671v18.842H6.2a.376.376 0 0 0-.346.229l-1.123 2.659a.376.376 0 0 0 .346.521h7.25a.376.376 0 0 0 .345-.521l-1.123-2.659a.376.376 0 0 0-.346-.229h-.608V8.812h.671a.376.376 0 0 0 .364-.466l-.156-.621h11.861v2.786l-5.977 5.888a1.146 1.146 0 0 0-.107 1.471l.056.077a.955.955 0 0 0 .759.397.94.94 0 0 0 .654-.273l4.989-4.915 4.989 4.915a.93.93 0 0 0 .724.271.953.953 0 0 0 .689-.394l.056-.077a1.145 1.145 0 0 0-.106-1.471zM4.596 11.418H2.361v-1.373h2.235v1.373zm5.989-7.244a.375.375 0 0 0-.364-.284H9.077V1.821l10.214 3.157h-8.504l-.202-.804zM8.327 2.045V3.89H7.183a.375.375 0 0 0-.364.284l-.202.804H4.258l4.069-2.933zM2.361 6.974V5.727h4.067l-.312 1.247H2.361zm7.485 13.62-1.799-1.919h1.799v1.919zm-2.288-2.67v-1.919l1.799 1.919H7.558zm0 1.323 1.799 1.919H7.558v-1.919zm2.288 2.67v1.919l-1.799-1.919h1.799zm0-4.567-1.799-1.919h1.799v1.919zm-2.288-2.669v-1.919l1.799 1.919H7.558zm0 7.81 1.799 1.919H7.558v-1.919zm2.288 2.67v1.919l-1.799-1.919h1.799zm0-11.054-1.798-1.919h1.799v1.919h-.001zm-2.288-2.669V9.414l1.822 2.024H7.558zm0 14.296 1.799 1.919H7.558v-1.919zm4.204 4.578H5.643l.806-1.909h4.508l.806 1.909zM9.846 10.836 8.024 8.812h1.822v2.024zM6.617 8.062l.858-3.422h2.454l.858 3.422h-4.17zm4.358-2.335h13.782a.624.624 0 0 1 0 1.248H11.288l-.313-1.248zm18.593 11.699-.056.077c-.04.054-.091.087-.144.091a.175.175 0 0 1-.138-.058l-5.252-5.174a.374.374 0 0 0-.526 0L18.2 17.536a.182.182 0 0 1-.138.058c-.053-.004-.104-.037-.144-.091l-.056-.077c-.104-.141-.089-.375.029-.492l5.826-5.739 5.826 5.739c.117.117.131.352.028.492zm-5.586-1.437a.377.377 0 0 0-.54 0l-4.988 5.174a.376.376 0 0 0-.105.26v9.264c0 .207.168.375.375.375h9.975a.375.375 0 0 0 .375-.375v-9.264a.375.375 0 0 0-.105-.26l-4.988-5.174zm.978 14.323h-2.494v-4.631h2.494v4.631zm3.365 0H25.71v-5.006a.375.375 0 0 0-.375-.375h-3.244a.375.375 0 0 0-.375.375v5.006H19.1v-8.738l4.613-4.785 4.612 4.785v8.738z"/>
    </symbol>
    <symbol id="deal" viewBox="0 0 32 32">
      <path d="M30.58 16h-5.3a1.25 1.25 0 0 0-1.034.533c-12.146-.003 1.83.026-16.491-.005A1.25 1.25 0 0 0 6.72 16h-5.3A1.414 1.414 0 0 0 0 17.406v7.854c.005.78.64 1.409 1.42 1.406h3.798c.411 0 .797-.199 1.037-.533h1.296l-.405 1.078a1.7 1.7 0 0 0 2.26 2.167 1.694 1.694 0 0 0 2.199.828 1.7 1.7 0 0 0 .933.857c.41.156.864.145 1.266-.03.188.396.523.703.933.857a1.706 1.706 0 0 0 2.133-.857l1.6.78a1.7 1.7 0 0 0 2.28-.81c.181-.394.209-.841.078-1.254a1.699 1.699 0 0 0 1.002-2.123 1.652 1.652 0 0 0 1.092-1.493h2.822c.239.334.625.533 1.037.533h3.798a1.414 1.414 0 0 0 1.42-1.406v-7.854A1.415 1.415 0 0 0 30.579 16zM5.427 25.434a.209.209 0 0 1-.209.166H1.42a.347.347 0 0 1-.354-.34v-7.854a.348.348 0 0 1 .354-.34h5.3c.06-.002.118.023.159.068s.058.106.049.165l-1.501 8.134zm3.911 2.607a.644.644 0 0 1-1.184.04.638.638 0 0 1-.015-.489l.663-1.76a.643.643 0 0 1 1.242.23c.002.144-.686 1.925-.707 1.979zm1.829-1.819a.64.64 0 1 1 1.2.45l-.828 2.193a.642.642 0 0 1-1.2-.449l.828-2.195zm3.4 1.277-.828 2.194a.645.645 0 0 1-1.185.04.633.633 0 0 1-.015-.489l.829-2.193a.64.64 0 0 1 1.095-.182.638.638 0 0 1 .105.632l-.001-.001zm1.867 1.706-.497 1.316a.64.64 0 0 1-1.2-.45l.498-1.317a.643.643 0 0 1 1.184-.04c.07.154.076.33.016.489l-.001.002zm6.378-5.013a.64.64 0 0 1-.847.301h-.005l-1.267-.609a.534.534 0 0 0-.46.962l1.269.606a.652.652 0 0 1 .304.857.636.636 0 0 1-.846.303c-.298-.139-.997-.475-1.37-.653a.533.533 0 0 0-.46.96c.026.012 1.366.655 1.393.665a.643.643 0 0 1-.587 1.143l-1.286-.617a.533.533 0 0 0-.461.96l1.288.618.004.003c.32.154.456.536.305.857-.073.152-.203.269-.362.326s-.334.047-.486-.026l-1.678-.818.172-.455a1.71 1.71 0 0 0-.997-2.199 1.687 1.687 0 0 0-.765-.094 1.697 1.697 0 0 0-2.367-1.576 1.71 1.71 0 0 0-2.522-.652 1.702 1.702 0 0 0-2.76.012h-1.44l1.381-7.471 6.905.013-2.995 3.293a1.936 1.936 0 0 0 2.728 2.741l3.084-2.786 4.828 2.477a.643.643 0 0 1 .301.856l-.001.002zm.673.875c.119-.124.217-.266.292-.421a1.706 1.706 0 0 0-.79-2.267l-4.457-2.286.272-.246a.533.533 0 1 0-.714-.793l-4.199 3.794a.87.87 0 0 1-1.226-1.23l3.376-3.713a.894.894 0 0 1 .603-.293l2.249.004v-.009l5.15-.007 1.38 7.467h-1.935zm7.448.193a.348.348 0 0 1-.354.34h-3.798a.21.21 0 0 1-.209-.165l-1.503-8.134c-.009-.06.009-.121.05-.167s.099-.07.16-.067h5.302a.348.348 0 0 1 .354.34l-.002 7.854z"/>
      <path d="M3.733 18.133a1.6 1.6 0 1 0 0 3.2 1.6 1.6 0 0 0 0-3.2zm0 2.134a.533.533 0 1 1 0-1.066.533.533 0 0 1 0 1.066zM28.267 18.133a1.6 1.6 0 1 0 0 3.2 1.6 1.6 0 0 0 0-3.2zm0 2.134a.533.533 0 1 1 0-1.066.533.533 0 0 1 0 1.066zM20.267 0H12.8c-.589 0-1.067.478-1.067 1.067v3.2h-3.2c-.589 0-1.067.478-1.067 1.067v3.2h-3.2c-.589 0-1.067.478-1.067 1.067v3.2c0 .589.478 1.067 1.067 1.067h7.467c.188-.001.372-.052.533-.148.161.096.346.147.533.148h7.467c.188-.001.372-.052.533-.148.161.096.346.147.533.148h7.467c.589 0 1.067-.478 1.067-1.067v-3.2c0-.589-.478-1.067-1.067-1.067h-3.2v-3.2c0-.589-.478-1.067-1.067-1.067h-3.2v-3.2C21.332.478 20.854 0 20.265 0zM12.8 1.067h7.467v3.2H12.8v-3.2zM11.733 12.8H4.266V9.6h7.467v3.2zm-3.2-4.267v-3.2H16v3.2H8.533zM20.267 9.6v3.2H12.8V9.6h7.467zm8.533 0v3.2h-7.467V9.6H28.8zm-4.267-4.267v3.2h-7.467v-3.2h7.467z"/>
    </symbol>
    <symbol id="drawing" viewBox="0 0 32 32">
      <path d="M28 9c-.3 0-.5.2-.5.5v21H6.6c-.3 0-.5.2-.5.5s.2.5.5.5H28c.3 0 .5-.2.5-.5V9.5c0-.3-.2-.5-.5-.5zM7 3.5h16c.3 0 .5-.2.5-.5s-.2-.5-.5-.5H7c-.3 0-.5.2-.5.5s.2.5.5.5zM30.75 1.05c-1-.95-2.55-.95-3.55 0L20.05 8.2c-.05.05-.75 3.7-.75 3.7-.05.6.6.6.6.6s3.65-.7 3.7-.75l7.15-7.15c1-1 1-2.6 0-3.55zm-10.3 10.3.4-1.9 1.5 1.5-1.9.4zm2.9-.75-.6-.6 3.3-3.4c.2-.2.2-.5 0-.7s-.5-.2-.7 0L22 9.25l-.8-.8 5.7-5.65.7.7-1.05 1.05c-.2.2-.2.5 0 .7.25.25.6.1.7 0l1-1.05.75.75-5.65 5.65zm6.7-6.75-.35.35-2.1-2.1.35-.35c.6-.6 1.55-.6 2.1 0 .6.6.6 1.55 0 2.1zM1 24.45c.3 0 .5-.2.5-.5V22.8c0-.3-.2-.5-.5-.5s-.5.2-.5.5v1.15c0 .25.2.5.5.5z"/>
      <path d="M3 .5C1.6.5.5 1.6.5 3v17.65c0 .3.2.5.5.5s.5-.2.5-.5V3c0-.85.65-1.5 1.5-1.5s1.5.65 1.5 1.5v24c-.4-.3-.95-.5-1.5-.5s-1.1.2-1.5.5v-.8c0-.3-.2-.5-.5-.5s-.5.2-.5.5V29c0 1.4 1.1 2.5 2.5 2.5s2.5-1.1 2.5-2.5V3C5.5 1.6 4.4.5 3 .5zm0 30c-.85 0-1.5-.65-1.5-1.5s.65-1.5 1.5-1.5 1.5.65 1.5 1.5-.65 1.5-1.5 1.5z"/>
      <path d="M3 4.5c.3 0 .5-.2.5-.5V3c0-.3-.2-.5-.5-.5s-.5.2-.5.5v1c0 .3.2.5.5.5zM2.5 13c0 .3.2.5.5.5s.5-.2.5-.5V6c0-.3-.2-.5-.5-.5s-.5.2-.5.5v7zM15.45 15.25c.1-.15.1-.35 0-.5l-4-6c-.2-.3-.65-.3-.85 0l-4 6c-.1.15-.1.35 0 .5s.25.25.45.25h8c.15 0 .3-.1.4-.25zm-7.5-.75L11 9.9l3.05 4.6h-6.1zM16.5 15c0 .3.2.5.5.5h9c.2 0 .35-.1.45-.25s.1-.35 0-.5l-1.25-2c-.15-.25-.45-.3-.7-.15s-.3.45-.15.7l.75 1.25H17c-.3-.05-.5.15-.5.45zM19.5 9c0-.3-.2-.5-.5-.5h-6c-.3 0-.5.2-.5.5s.2.5.5.5h6c.3 0 .5-.2.5-.5zM8 25.5h6c.3 0 .5-.2.5-.5v-8c0-.3-.2-.5-.5-.5s-.5.2-.5.5v7.5h-1V21c0-.85-.65-1.5-1.5-1.5s-1.5.65-1.5 1.5v3.5h-1v-.55c0-.3-.2-.5-.5-.5s-.5.2-.5.5V25c0 .3.2.5.5.5zm2.5-4.5c0-.3.2-.5.5-.5s.5.2.5.5v3.5h-1V21zM7.5 17v4.7c0 .3.2.5.5.5s.5-.2.5-.5V17c0-.3-.2-.5-.5-.5s-.5.2-.5.5zM25.5 17c0-.3-.2-.5-.5-.5s-.5.2-.5.5v7.5H16c-.3 0-.5.2-.5.5s.2.5.5.5h9c.3 0 .5-.2.5-.5v-8zM23.65 29.35c.25.25.6.1.7 0l1-1s.3-.35 0-.7l-1-1c-.2-.2-.5-.2-.7 0-.4.4.15.85.15.85H9.2s.55-.4.15-.85c-.2-.2-.5-.2-.7 0l-1 1c-.25.35 0 .7 0 .7l1 1c.1.1.5.25.7 0 .35-.45-.15-.85-.15-.85h14.6s-.55.4-.15.85zM20.35 5.65l-1-1c-.2-.2-.5-.2-.7 0-.4.4.15.85.15.85h-6.6s.55-.45.15-.85c-.2-.2-.5-.2-.7 0l-1 1c-.3.35-.05.65 0 .7l1 1c.1.1.45.25.7 0 .4-.45-.15-.85-.15-.85h6.6s-.55.35-.15.85c.25.3.6.1.7 0l1-1s.3-.35 0-.7z"/>
    </symbol>
    <symbol id="plan" viewBox="0 0 32 32">
      <path d="m21.915 13.432-6.721-4.883a1.292 1.292 0 0 0-1.524.008l-6.71 4.875a1.29 1.29 0 0 0 .555 2.314c.34.054.68-.027.959-.23l.114-.083v6.196c0 .631.513 1.144 1.144 1.144h9.414c.631 0 1.144-.513 1.144-1.144v-6.196l.114.083a1.28 1.28 0 0 0 .958.23 1.29 1.29 0 0 0 .555-2.314zm-5.852 8.342H12.81v-4.098a.42.42 0 0 1 .419-.419h2.416a.42.42 0 0 1 .419.419v4.098zm3.225-.144a.146.146 0 0 1-.144.144h-2.08v-4.098a1.42 1.42 0 0 0-1.419-1.419h-2.416a1.42 1.42 0 0 0-1.419 1.419v4.098H9.73a.146.146 0 0 1-.144-.144v-6.922l4.851-3.525 4.851 3.525v6.922zm2.103-6.987a.286.286 0 0 1-.402.064L14.73 10.16a.501.501 0 0 0-.588 0l-6.259 4.547a.286.286 0 0 1-.402-.064.289.289 0 0 1 .064-.402l6.714-4.878.008-.006c.048-.037.107-.055.166-.055s.12.018.171.055l6.721 4.883a.288.288 0 0 1 .064.402zm9.998-3.743-1.243-.717a1.092 1.092 0 0 0-.833-.109l-.023.007V7.157a.5.5 0 0 0-.5-.5H4.342V4.048a.5.5 0 0 0-.5-.5H2.686A2.627 2.627 0 0 0 .062 6.173V25.83a2.628 2.628 0 0 0 2.624 2.625H28.79a.5.5 0 0 0 .5-.5V16.73l2.5-4.329a1.098 1.098 0 0 0-.402-1.499zm-8.064 11.478.913.527-1.017.708.104-1.234zm1.662-.195-1.411-.815 5.011-8.68 1.411.815-5.011 8.68zM1.063 6.172c0-.896.729-1.625 1.625-1.625h.656v18.657h-.656c-.613 0-1.177.211-1.625.565V6.172zm27.228 21.281H2.687c-.896 0-1.625-.729-1.625-1.625s.729-1.625 1.625-1.625h1.156a.5.5 0 0 0 .5-.5V7.655h23.948v3.544L22.46 21.298a.497.497 0 0 0-.065.208l-.198 2.342a.84.84 0 0 0 .421.806.846.846 0 0 0 .909-.038l1.929-1.342a.5.5 0 0 0 .147-.16l2.687-4.654v8.993zm2.634-15.554-.426.738-1.411-.815.426-.738c.016-.028.041-.04.059-.045s.045-.007.074.009l1.243.717c.028.016.04.041.045.059s.007.045-.009.074zM8.953 24.27a.5.5 0 0 1-.5.5h-.53a.5.5 0 0 1 0-1h.53a.5.5 0 0 1 .5.5zm2.093 0a.5.5 0 0 1-.5.5h-.53a.5.5 0 0 1 0-1h.53a.5.5 0 0 1 .5.5zm2.093 0a.5.5 0 0 1-.5.5h-.53a.5.5 0 0 1 0-1h.53a.5.5 0 0 1 .5.5zm2.093 0a.5.5 0 0 1-.5.5h-.53a.5.5 0 0 1 0-1h.53a.5.5 0 0 1 .5.5zm2.092 0a.5.5 0 0 1-.5.5h-.53a.5.5 0 0 1 0-1h.53a.5.5 0 0 1 .5.5zm2.093 0a.5.5 0 0 1-.5.5h-.53a.5.5 0 0 1 0-1h.53a.5.5 0 0 1 .5.5zm2.093 0a.5.5 0 0 1-.5.5h-.53a.5.5 0 0 1 0-1h.53a.5.5 0 0 1 .5.5z"/>
    </symbol>
  </defs>
</svg>