<svg width="60" height="60" viewBox="0 0 60 60" fill="none" xmlns="http://www.w3.org/2000/svg">
<path d="M56.3711 30.7476L45.1633 19.7074V14.4832H46.4195C47.8398 14.4832 48.9953 13.3277 48.9953 11.9074C48.9953 10.4871 47.8398 9.33161 46.4195 9.33161H40.934L16.5238 1.78943C16.3129 1.72498 16.0844 1.7613 15.9051 1.89021L5.57852 9.33279H3.72461C3.33672 9.33279 3.02148 9.64802 3.02148 10.0359V13.7801C3.02148 14.1679 3.33672 14.4832 3.72461 14.4832H5.81992V17.4293H3.72461C3.33672 17.4293 3.02148 17.7445 3.02148 18.1324V22.1121C3.02148 22.5 3.33672 22.8152 3.72461 22.8152H9.32148C9.70938 22.8152 10.0246 22.5 10.0246 22.1121V18.1324C10.0246 17.7445 9.70938 17.4293 9.32148 17.4293H7.22617V14.4832H11.1156L10.8238 15.648C10.7711 15.8578 10.818 16.0804 10.9516 16.2515C11.0852 16.4226 11.2891 16.5222 11.5059 16.5222H12.7645V51.8508H11.6242C11.3418 51.8508 11.0863 52.0195 10.9762 52.2808L8.87148 57.266C8.78008 57.4828 8.80352 57.7312 8.93359 57.9281C9.06367 58.125 9.28398 58.2422 9.51953 58.2422H23.1133C23.3488 58.2422 23.5691 58.1238 23.6992 57.9281C23.8293 57.7312 23.8527 57.4828 23.7613 57.266L21.6566 52.2808C21.5465 52.0207 21.291 51.8508 21.0086 51.8508H19.8684V16.5222H21.127C21.3438 16.5222 21.5477 16.4226 21.6813 16.2515C21.8148 16.0804 21.8617 15.8578 21.809 15.648L21.5172 14.4832H43.757V19.7074L32.5492 30.7476C31.8238 31.4613 31.7359 32.673 32.3488 33.5051L32.4543 33.6492C32.7707 34.0793 33.2418 34.3488 33.7469 34.3886C33.7914 34.3922 33.8348 34.3933 33.8781 34.3933C34.3281 34.3933 34.7687 34.2105 35.1039 33.8812L44.459 24.6656L53.8141 33.8812C54.1809 34.2433 54.6766 34.4285 55.1711 34.3886C55.6762 34.3488 56.1473 34.0793 56.4637 33.6492L56.5691 33.5051C57.1844 32.673 57.0953 31.4613 56.3711 30.7476ZM8.61836 21.409H4.42773V18.8355H8.61836V21.409ZM19.8473 7.82576C19.7687 7.51287 19.4875 7.29373 19.1652 7.29373H17.0195V3.41365L36.1703 9.33279H20.2258L19.8473 7.82576ZM15.6133 3.83435V7.29373H13.4676C13.1453 7.29373 12.8641 7.51287 12.7855 7.82576L12.407 9.33279H7.98438L15.6133 3.83435ZM4.42773 13.0769V10.739H12.0543L11.4684 13.0769H4.42773ZM18.4621 38.6133L15.0895 35.0144H18.4621V38.6133ZM14.1707 33.607V30.0082L17.5434 33.607H14.1707ZM14.1707 36.089L17.5434 39.6879H14.1707V36.089ZM18.4621 41.0941V44.6929L15.0895 41.0941H18.4621ZM18.4621 32.5312L15.0895 28.9324H18.4621V32.5312ZM14.1707 27.5261V23.9273L17.5434 27.5261H14.1707ZM14.1707 42.1699L17.5434 45.7687H14.1707V42.1699ZM18.4621 47.1761V50.775L15.0895 47.1761H18.4621ZM18.4621 26.4504L15.0906 22.8515H18.4633V26.4504H18.4621ZM14.1707 21.4453V17.6508L17.5867 21.4453H14.1707ZM14.1707 48.2508L17.5434 51.8496H14.1707V48.2508ZM22.0539 56.8359H10.5801L12.0906 53.257H20.5422L22.0539 56.8359ZM18.4621 20.3168L15.0461 16.5222H18.4621V20.3168ZM12.407 15.116L14.016 8.69998H18.6168L20.2258 15.116H12.407ZM20.5785 10.739H46.4195C47.0641 10.739 47.5891 11.2629 47.5891 11.9086C47.5891 12.5543 47.0652 13.0781 46.4195 13.0781H21.1656L20.5785 10.739ZM55.4395 32.673L55.334 32.8172C55.259 32.9191 55.1629 32.9801 55.0633 32.9883C54.973 32.9953 54.8828 32.959 54.8043 32.8804L44.9559 23.1785C44.6816 22.909 44.2422 22.909 43.9691 23.1785L34.1207 32.8804C34.0422 32.9578 33.952 32.9953 33.8617 32.9883C33.7621 32.9801 33.666 32.9191 33.591 32.8172L33.4855 32.673C33.291 32.4094 33.318 31.9699 33.5406 31.7496L44.4637 20.9894L55.3867 31.7496C55.607 31.9687 55.6328 32.4094 55.4395 32.673ZM44.9664 29.9801C44.834 29.8429 44.6512 29.7644 44.4602 29.7644C44.2691 29.7644 44.0863 29.8418 43.9539 29.9801L34.6023 39.682C34.4758 39.8133 34.4055 39.9879 34.4055 40.1695V57.539C34.4055 57.9269 34.7207 58.2422 35.1086 58.2422H53.8117C54.1996 58.2422 54.5148 57.9269 54.5148 57.539V40.1695C54.5148 39.9879 54.4445 39.8121 54.318 39.682L44.9664 29.9801ZM46.7992 56.8359H42.1223V48.1535H46.7992V56.8359ZM53.1086 56.8359H48.2055V47.4504C48.2055 47.0625 47.8902 46.7472 47.5023 46.7472H41.4191C41.0312 46.7472 40.716 47.0625 40.716 47.4504V56.8359H35.8117V40.4531L44.4602 31.4812L53.1086 40.4531V56.8359Z" fill="#111113"/>
</svg>
