<svg width="60" height="60" viewBox="0 0 60 60" fill="none" xmlns="http://www.w3.org/2000/svg">
<g clip-path="url(#clip0_30_428)">
<path d="M57.337 30H47.4C46.6284 29.9938 45.9032 30.3678 45.461 31C22.687 30.995 48.892 31.048 14.541 30.99C14.0958 30.3614 13.3703 29.9913 12.6 30H2.663C1.20012 29.9945 0.00881209 31.1742 0 32.637V47.363C0.00881209 48.8259 1.20012 50.0056 2.663 50H9.785C10.5563 49.9995 11.28 49.6272 11.729 49H14.159L13.4 51.022C12.9422 52.2183 13.2455 53.5724 14.1699 54.4591C15.0943 55.3457 16.4599 55.5923 17.636 55.085C18.3699 56.6263 20.1906 57.3122 21.759 56.638C22.113 57.3793 22.7401 57.9548 23.509 58.244C24.277 58.5359 25.1287 58.5158 25.882 58.188C26.2351 58.9296 26.8621 59.5053 27.631 59.794C29.1793 60.3715 30.9126 59.6751 31.631 58.187L34.631 59.649C35.3985 60.0203 36.2827 60.0687 37.086 59.7832C37.8894 59.4978 38.5449 58.9023 38.906 58.13C39.2453 57.3918 39.2974 56.5536 39.052 55.779C40.6417 55.1681 41.4695 53.4147 40.931 51.799C42.1205 51.3709 42.9309 50.2634 42.979 49H48.271C48.72 49.6272 49.4437 49.9995 50.215 50H57.337C58.7999 50.0056 59.9912 48.8259 60 47.363V32.637C59.9912 31.1742 58.7999 29.9945 57.337 30ZM10.176 47.689C10.1379 47.8735 9.97334 48.0044 9.785 48H2.663C2.3042 48.0067 2.00765 47.7218 2 47.363V32.637C2.00765 32.2783 2.3042 31.9933 2.663 32H12.6C12.7132 31.9964 12.8221 32.0432 12.8975 32.1278C12.9728 32.2124 13.0067 32.326 12.99 32.438L10.176 47.689ZM17.509 52.576C17.272 53.193 16.5831 53.5049 15.963 53.276C15.6642 53.1663 15.422 52.9413 15.2904 52.6515C15.1589 52.3617 15.149 52.0312 15.263 51.734L16.506 48.434C16.7177 47.8968 17.2804 47.585 17.8481 47.6904C18.4158 47.7957 18.8292 48.2887 18.834 48.866C18.838 49.136 17.548 52.476 17.509 52.576ZM20.939 49.166C21.1721 48.5444 21.8649 48.2295 22.4865 48.4625C23.1081 48.6956 23.4231 49.3884 23.19 50.01L21.637 54.122C21.5249 54.4208 21.2983 54.6627 21.0074 54.794C20.7165 54.9254 20.3853 54.9355 20.087 54.822C19.4695 54.5884 19.1567 53.8998 19.387 53.281L20.939 49.166ZM27.313 51.56L25.76 55.673C25.5225 56.2923 24.8305 56.6046 24.209 56.373C23.9109 56.2624 23.6694 56.0373 23.538 55.7478C23.4065 55.4583 23.3961 55.1283 23.509 54.831L25.063 50.719C25.2136 50.3169 25.5673 50.0257 25.9908 49.9551C26.4143 49.8844 26.8433 50.0451 27.1163 50.3766C27.3892 50.708 27.4646 51.1599 27.314 51.562L27.313 51.56ZM30.813 54.76L29.881 57.228C29.6431 57.8464 28.9522 58.1584 28.331 57.928C27.7124 57.6944 27.3993 57.0044 27.631 56.385L28.564 53.915C28.8006 53.296 29.4921 52.9836 30.113 53.215C30.4108 53.3257 30.6523 53.5506 30.7838 53.8398C30.9154 54.129 30.9263 54.4588 30.814 54.756L30.813 54.76ZM42.773 45.36C42.4869 45.9512 41.7788 46.2025 41.184 45.924H41.175L38.8 44.782C38.3016 44.544 37.7045 44.7551 37.4665 45.2535C37.2285 45.752 37.4396 46.349 37.938 46.587L40.317 47.724C40.9106 48.0171 41.1633 48.7294 40.887 49.331C40.752 49.617 40.509 49.8375 40.2114 49.9443C39.9137 50.051 39.5859 50.0351 39.3 49.9C38.742 49.64 37.43 49.009 36.731 48.676C36.2414 48.4775 35.6818 48.694 35.4534 49.1704C35.225 49.6468 35.4066 50.2187 35.868 50.476C35.916 50.499 38.43 51.704 38.479 51.723C39.0705 52.0268 39.3038 52.7525 39 53.344C38.6962 53.9355 37.9705 54.1688 37.379 53.865L34.968 52.708C34.4774 52.5043 33.9132 52.7196 33.6831 53.1984C33.453 53.6772 33.6374 54.2523 34.103 54.508L36.518 55.667L36.525 55.673C37.1241 55.9612 37.3793 56.6781 37.097 57.28C36.961 57.5654 36.7171 57.785 36.419 57.8904C36.1209 57.9959 35.7932 57.9784 35.508 57.842L32.362 56.308L32.685 55.454C32.9839 54.6596 32.9548 53.7789 32.6043 53.0059C32.2538 52.2328 31.6105 51.6307 30.816 51.332C30.3577 51.163 29.8666 51.1024 29.381 51.155C29.3906 50.0798 28.8568 49.0723 27.9618 48.4764C27.0667 47.8804 25.9314 47.7765 24.943 48.2C24.5341 47.3528 23.7732 46.7284 22.8624 46.4928C21.9517 46.2572 20.9834 46.4343 20.215 46.977C19.6117 46.1485 18.647 45.6604 17.6221 45.6649C16.5972 45.6695 15.6369 46.1662 15.041 47H12.341L14.93 32.992L27.877 33.016L22.261 39.191C20.9731 40.624 21.0287 42.8134 22.3876 44.1792C23.7465 45.545 25.9355 45.6116 27.375 44.331L33.157 39.107L42.21 43.751C42.8076 44.0397 43.0596 44.757 42.774 45.356L42.773 45.36ZM44.034 47C44.2564 46.767 44.4413 46.5008 44.582 46.211C45.3368 44.6274 44.6758 42.7312 43.1 41.96L34.743 37.674L35.253 37.213C35.5267 36.9762 35.6511 36.6099 35.5782 36.2553C35.5052 35.9008 35.2464 35.6133 34.9014 35.5037C34.5564 35.3942 34.1792 35.4796 33.915 35.727L26.042 42.841C25.3968 43.4259 24.406 43.4007 23.7913 42.7839C23.1766 42.1671 23.1549 41.1762 23.742 40.533L30.072 33.572C30.3632 33.2492 30.7683 33.0521 31.202 33.022L35.419 33.03V33.014L45.076 33L47.663 47H44.034ZM58 47.363C57.9923 47.7218 57.6958 48.0067 57.337 48H50.215C50.027 48.0045 49.8625 47.8741 49.824 47.69L47.006 32.439C46.9889 32.3261 47.0231 32.2115 47.0994 32.1265C47.1756 32.0416 47.2859 31.9951 47.4 32H57.341C57.6998 31.9933 57.9963 32.2783 58.004 32.637L58 47.363Z" fill="#111113"/>
<path d="M7 34C5.34315 34 4 35.3431 4 37C4 38.6569 5.34315 40 7 40C8.65685 40 10 38.6569 10 37C10 35.3431 8.65685 34 7 34ZM7 38C6.44772 38 6 37.5523 6 37C6 36.4477 6.44772 36 7 36C7.55229 36 8 36.4477 8 37C8 37.5523 7.55229 38 7 38Z" fill="#111113"/>
<path d="M53 34C51.3431 34 50 35.3431 50 37C50 38.6569 51.3431 40 53 40C54.6569 40 56 38.6569 56 37C56 35.3431 54.6569 34 53 34ZM53 38C52.4477 38 52 37.5523 52 37C52 36.4477 52.4477 36 53 36C53.5523 36 54 36.4477 54 37C54 37.5523 53.5523 38 53 38Z" fill="#111113"/>
<path d="M38 0H24C22.8954 0 22 0.895431 22 2V8H16C14.8954 8 14 8.89543 14 10V16H8C6.89543 16 6 16.8954 6 18V24C6 25.1046 6.89543 26 8 26H22C22.3521 25.998 22.6974 25.902 23 25.722C23.3026 25.902 23.6479 25.998 24 26H38C38.3521 25.998 38.6974 25.902 39 25.722C39.3026 25.902 39.6479 25.998 40 26H54C55.1046 26 56 25.1046 56 24V18C56 16.8954 55.1046 16 54 16H48V10C48 8.89543 47.1046 8 46 8H40V2C40 0.895431 39.1046 0 38 0ZM24 2H38V8H24V2ZM22 24H8V18H22V24ZM16 16V10H30V16H16ZM38 18V24H24V18H38ZM54 18V24H40V18H54ZM46 10V16H32V10H46Z" fill="#111113"/>
</g>
<defs>
<clipPath id="clip0_30_428">
<rect width="60" height="60" fill="white"/>
</clipPath>
</defs>
</svg>
