<svg width="60" height="60" viewBox="0 0 60 60" fill="none" xmlns="http://www.w3.org/2000/svg">
<g clip-path="url(#clip0_30_411)">
<path d="M52.5 16.875C51.9375 16.875 51.5625 17.25 51.5625 17.8125V57.1875H12.375C11.8125 57.1875 11.4375 57.5625 11.4375 58.125C11.4375 58.6875 11.8125 59.0625 12.375 59.0625H52.5C53.0625 59.0625 53.4375 58.6875 53.4375 58.125V17.8125C53.4375 17.25 53.0625 16.875 52.5 16.875Z" fill="#111113"/>
<path d="M13.125 6.5625H43.125C43.6875 6.5625 44.0625 6.1875 44.0625 5.625C44.0625 5.0625 43.6875 4.6875 43.125 4.6875H13.125C12.5625 4.6875 12.1875 5.0625 12.1875 5.625C12.1875 6.1875 12.5625 6.5625 13.125 6.5625Z" fill="#111113"/>
<path d="M57.6555 1.96875C55.7805 0.1875 52.8743 0.1875 50.9993 1.96875L37.593 15.375C37.4993 15.4687 36.1868 22.3125 36.1868 22.3125C36.093 23.4375 37.3118 23.4375 37.3118 23.4375C37.3118 23.4375 44.1555 22.125 44.2493 22.0312L57.6555 8.625C59.5305 6.75 59.5305 3.75 57.6555 1.96875ZM38.343 21.2813L39.093 17.7188L41.9055 20.5312L38.343 21.2813ZM43.7805 19.875L42.6555 18.75L48.843 12.375C49.218 12 49.218 11.4375 48.843 11.0625C48.468 10.6875 47.9055 10.6875 47.5305 11.0625L41.2493 17.3438L39.7493 15.8438L50.4368 5.25L51.7493 6.5625L49.7805 8.53125C49.4055 8.90625 49.4055 9.46875 49.7805 9.84375C50.2493 10.3125 50.9055 10.0312 51.093 9.84375L52.968 7.875L54.3743 9.28125L43.7805 19.875ZM56.343 7.21875L55.6868 7.875L51.7493 3.9375L52.4055 3.28125C53.5305 2.15625 55.3118 2.15625 56.343 3.28125C57.468 4.40625 57.468 6.1875 56.343 7.21875Z" fill="#111113"/>
<path d="M1.875 45.8438C2.4375 45.8438 2.8125 45.4688 2.8125 44.9063V42.75C2.8125 42.1875 2.4375 41.8125 1.875 41.8125C1.3125 41.8125 0.9375 42.1875 0.9375 42.75V44.9063C0.9375 45.375 1.3125 45.8438 1.875 45.8438Z" fill="#111113"/>
<path d="M5.625 0.9375C3 0.9375 0.9375 3 0.9375 5.625V38.7188C0.9375 39.2812 1.3125 39.6562 1.875 39.6562C2.4375 39.6562 2.8125 39.2812 2.8125 38.7188V5.625C2.8125 4.03125 4.03125 2.8125 5.625 2.8125C7.21875 2.8125 8.4375 4.03125 8.4375 5.625V50.625C7.6875 50.0625 6.65625 49.6875 5.625 49.6875C4.59375 49.6875 3.5625 50.0625 2.8125 50.625V49.125C2.8125 48.5625 2.4375 48.1875 1.875 48.1875C1.3125 48.1875 0.9375 48.5625 0.9375 49.125V54.375C0.9375 57 3 59.0625 5.625 59.0625C8.25 59.0625 10.3125 57 10.3125 54.375V5.625C10.3125 3 8.25 0.9375 5.625 0.9375ZM5.625 57.1875C4.03125 57.1875 2.8125 55.9688 2.8125 54.375C2.8125 52.7812 4.03125 51.5625 5.625 51.5625C7.21875 51.5625 8.4375 52.7812 8.4375 54.375C8.4375 55.9688 7.21875 57.1875 5.625 57.1875Z" fill="#111113"/>
<path d="M5.625 8.4375C6.1875 8.4375 6.5625 8.0625 6.5625 7.5V5.625C6.5625 5.0625 6.1875 4.6875 5.625 4.6875C5.0625 4.6875 4.6875 5.0625 4.6875 5.625V7.5C4.6875 8.0625 5.0625 8.4375 5.625 8.4375Z" fill="#111113"/>
<path d="M4.6875 24.375C4.6875 24.9375 5.0625 25.3125 5.625 25.3125C6.1875 25.3125 6.5625 24.9375 6.5625 24.375V11.25C6.5625 10.6875 6.1875 10.3125 5.625 10.3125C5.0625 10.3125 4.6875 10.6875 4.6875 11.25V24.375Z" fill="#111113"/>
<path d="M28.9688 28.5938C29.1562 28.3125 29.1562 27.9375 28.9688 27.6562L21.4687 16.4063C21.0937 15.8438 20.25 15.8438 19.875 16.4063L12.375 27.6562C12.1875 27.9375 12.1875 28.3125 12.375 28.5938C12.5625 28.875 12.8438 29.0625 13.2188 29.0625H28.2188C28.5 29.0625 28.7812 28.875 28.9688 28.5938ZM14.9062 27.1875L20.625 18.5625L26.3438 27.1875H14.9062Z" fill="#111113"/>
<path d="M30.9375 28.125C30.9375 28.6875 31.3125 29.0625 31.875 29.0625H48.75C49.125 29.0625 49.4063 28.875 49.5938 28.5937C49.7813 28.3125 49.7813 27.9375 49.5938 27.6562L47.25 23.9062C46.9688 23.4375 46.4063 23.3438 45.9375 23.625C45.4688 23.9063 45.375 24.4687 45.6563 24.9375L47.0625 27.2812H31.875C31.3125 27.1875 30.9375 27.5625 30.9375 28.125Z" fill="#111113"/>
<path d="M36.5625 16.875C36.5625 16.3125 36.1875 15.9375 35.625 15.9375H24.375C23.8125 15.9375 23.4375 16.3125 23.4375 16.875C23.4375 17.4375 23.8125 17.8125 24.375 17.8125H35.625C36.1875 17.8125 36.5625 17.4375 36.5625 16.875Z" fill="#111113"/>
<path d="M15 47.8125H26.25C26.8125 47.8125 27.1875 47.4375 27.1875 46.875V31.875C27.1875 31.3125 26.8125 30.9375 26.25 30.9375C25.6875 30.9375 25.3125 31.3125 25.3125 31.875V45.9375H23.4375V39.375C23.4375 37.7812 22.2188 36.5625 20.625 36.5625C19.0312 36.5625 17.8125 37.7812 17.8125 39.375V45.9375H15.9375V44.9063C15.9375 44.3438 15.5625 43.9688 15 43.9688C14.4375 43.9688 14.0625 44.3438 14.0625 44.9063V46.875C14.0625 47.4375 14.4375 47.8125 15 47.8125ZM19.6875 39.375C19.6875 38.8125 20.0625 38.4375 20.625 38.4375C21.1875 38.4375 21.5625 38.8125 21.5625 39.375V45.9375H19.6875V39.375Z" fill="#111113"/>
<path d="M14.0625 31.875V40.6875C14.0625 41.25 14.4375 41.625 15 41.625C15.5625 41.625 15.9375 41.25 15.9375 40.6875V31.875C15.9375 31.3125 15.5625 30.9375 15 30.9375C14.4375 30.9375 14.0625 31.3125 14.0625 31.875Z" fill="#111113"/>
<path d="M47.8125 31.875C47.8125 31.3125 47.4375 30.9375 46.875 30.9375C46.3125 30.9375 45.9375 31.3125 45.9375 31.875V45.9375H30C29.4375 45.9375 29.0625 46.3125 29.0625 46.875C29.0625 47.4375 29.4375 47.8125 30 47.8125H46.875C47.4375 47.8125 47.8125 47.4375 47.8125 46.875V31.875Z" fill="#111113"/>
<path d="M44.3431 55.0313C44.8118 55.5 45.4681 55.2188 45.6556 55.0313L47.5306 53.1563C47.5306 53.1563 48.0931 52.5 47.5306 51.8437L45.6556 49.9688C45.2806 49.5938 44.7181 49.5938 44.3431 49.9688C43.5931 50.7188 44.6243 51.5625 44.6243 51.5625H17.2493C17.2493 51.5625 18.2806 50.8125 17.5306 49.9688C17.1556 49.5938 16.5931 49.5938 16.2181 49.9688L14.3431 51.8437C13.8743 52.5 14.3431 53.1563 14.3431 53.1563L16.2181 55.0313C16.4056 55.2188 17.1556 55.5 17.5306 55.0313C18.1868 54.1875 17.2493 53.4375 17.2493 53.4375H44.6243C44.6243 53.4375 43.5931 54.1875 44.3431 55.0313Z" fill="#111113"/>
<path d="M38.1569 10.5938L36.2819 8.71875C35.9069 8.34375 35.3444 8.34375 34.9694 8.71875C34.2194 9.46875 35.2507 10.3125 35.2507 10.3125H22.8757C22.8757 10.3125 23.9069 9.46875 23.1569 8.71875C22.7819 8.34375 22.2194 8.34375 21.8444 8.71875L19.9694 10.5938C19.4069 11.25 19.8757 11.8125 19.9694 11.9062L21.8444 13.7812C22.0319 13.9688 22.6882 14.25 23.1569 13.7812C23.9069 12.9375 22.8757 12.1875 22.8757 12.1875H35.2507C35.2507 12.1875 34.2194 12.8438 34.9694 13.7812C35.4382 14.3438 36.0944 13.9688 36.2819 13.7812L38.1569 11.9062C38.1569 11.9062 38.7194 11.25 38.1569 10.5938Z" fill="#111113"/>
</g>
<defs>
<clipPath id="clip0_30_411">
<rect width="60" height="60" fill="white"/>
</clipPath>
</defs>
</svg>
