<svg width="60" height="60" viewBox="0 0 60 60" fill="none" xmlns="http://www.w3.org/2000/svg">
<path d="M41.09 25.1852L28.4875 16.029C27.6375 15.4116 26.464 15.4181 25.6302 16.0441L13.0484 25.1852C11.9723 25.9673 11.7316 27.4793 12.5115 28.5559C12.8902 29.0786 13.45 29.4224 14.0876 29.5239C14.7248 29.6254 15.3632 29.4724 15.8851 29.0933L16.0983 28.9384V40.5554C16.0983 41.7384 17.0606 42.7009 18.2436 42.7009H35.8948C37.0778 42.7009 38.0402 41.7384 38.0402 40.5554V28.9384L38.2535 29.0934C38.67 29.396 39.1608 29.5545 39.6661 29.5545C39.7937 29.5545 39.9224 29.5444 40.0508 29.5239C40.6884 29.4224 41.2484 29.0787 41.627 28.5559C42.4069 27.4793 42.1661 25.9672 41.09 25.1852ZM30.1189 40.8258H24.0195V33.1424C24.0195 32.7095 24.3717 32.3573 24.8046 32.3573H29.3338C29.7667 32.3573 30.1188 32.7095 30.1188 33.1424V40.8258H30.1189ZM36.1651 40.5554C36.1651 40.702 36.0412 40.8259 35.8946 40.8259H31.9938V33.1425C31.9938 31.6757 30.8005 30.4825 29.3338 30.4825H24.8046C23.3378 30.4825 22.1445 31.6758 22.1445 33.1425V40.8259H18.2436C18.0971 40.8259 17.9733 40.702 17.9733 40.5554V27.576L27.0691 20.9673L36.1651 27.5761V40.5554ZM40.1086 27.4559C40.024 27.5726 39.8988 27.6493 39.7561 27.6722C39.6143 27.6946 39.4714 27.6607 39.3554 27.5766L27.6202 19.0502C27.2917 18.8115 26.8465 18.8115 26.5181 19.0502L14.7831 27.5765C14.667 27.6607 14.5252 27.6948 14.3822 27.6722C14.2396 27.6495 14.1144 27.5726 14.0298 27.4559C13.8555 27.2153 13.9097 26.8772 14.1504 26.702L26.7389 17.556C26.7439 17.5523 26.749 17.5487 26.7539 17.5448C26.8444 17.4763 26.9544 17.442 27.0655 17.442C27.1772 17.442 27.29 17.4766 27.3853 17.5459L39.9877 26.702C40.2287 26.8771 40.2829 27.2153 40.1086 27.4559ZM58.8544 20.4366L56.5246 19.0914C56.0493 18.8169 55.495 18.7443 54.9633 18.8866C54.9487 18.8905 54.935 18.8961 54.9207 18.9004V13.4182C54.9207 12.9005 54.501 12.4807 53.9832 12.4807H8.14289V7.58801C8.14289 7.07028 7.72312 6.65051 7.20539 6.65051H5.03813C2.32477 6.65051 0.117188 8.85809 0.117188 11.5717V48.4284C0.117188 51.1419 2.32477 53.3495 5.03813 53.3495H53.9831C54.5009 53.3495 54.9206 52.9297 54.9206 52.412V31.3654L59.6074 23.2477C60.1748 22.265 59.837 21.004 58.8544 20.4366ZM43.735 41.9579L45.4461 42.9459L43.5395 44.2725L43.735 41.9579ZM46.8511 41.5922L44.2047 40.0642L53.601 23.7895L56.2474 25.3174L46.8511 41.5922ZM1.99219 11.5717C1.99219 9.89204 3.35859 8.52563 5.03813 8.52563H6.26789V43.5074H5.03813C3.88887 43.5074 2.83055 43.9032 1.99219 44.5659V11.5717ZM53.0456 51.4745H5.03813C3.35859 51.4745 1.99219 50.108 1.99219 48.4283C1.99219 46.7487 3.35859 45.3823 5.03813 45.3823H7.20539C7.72312 45.3823 8.14289 44.9625 8.14289 44.4448V14.3557H53.0456V21.0014L42.1133 39.9366C42.0443 40.056 42.0026 40.189 41.991 40.3264L41.6201 44.7175C41.5676 45.3383 41.8702 45.9175 42.4098 46.229C42.6594 46.373 42.9334 46.4446 43.2063 46.4446C43.5232 46.4446 43.8387 46.3482 44.1135 46.1571L47.7308 43.6402C47.8439 43.5615 47.9384 43.4588 48.0071 43.3395L53.0455 34.6129V51.4745H53.0456ZM57.9838 22.31L57.1849 23.6937L54.5385 22.1657L55.3372 20.7822C55.368 20.7288 55.4147 20.7068 55.4484 20.6977C55.4823 20.6889 55.5336 20.6843 55.587 20.715L57.9168 22.0602C57.97 22.091 57.992 22.1378 58.0011 22.1715C58.0103 22.2054 58.0145 22.2567 57.9838 22.31ZM16.7872 45.507C16.7872 46.0247 16.3675 46.4445 15.8497 46.4445H14.856C14.3382 46.4445 13.9185 46.0247 13.9185 45.507C13.9185 44.9892 14.3382 44.5695 14.856 44.5695H15.8497C16.3675 44.5695 16.7872 44.9892 16.7872 45.507ZM20.7111 45.507C20.7111 46.0247 20.2914 46.4445 19.7736 46.4445H18.7799C18.2621 46.4445 17.8424 46.0247 17.8424 45.507C17.8424 44.9892 18.2621 44.5695 18.7799 44.5695H19.7736C20.2914 44.5695 20.7111 44.9892 20.7111 45.507ZM24.6352 45.507C24.6352 46.0247 24.2154 46.4445 23.6977 46.4445H22.7039C22.1862 46.4445 21.7664 46.0247 21.7664 45.507C21.7664 44.9892 22.1862 44.5695 22.7039 44.5695H23.6977C24.2154 44.5695 24.6352 44.9892 24.6352 45.507ZM28.5592 45.507C28.5592 46.0247 28.1394 46.4445 27.6217 46.4445H26.6278C26.1101 46.4445 25.6903 46.0247 25.6903 45.507C25.6903 44.9892 26.1101 44.5695 26.6278 44.5695H27.6217C28.1394 44.5695 28.5592 44.9892 28.5592 45.507ZM32.4831 45.507C32.4831 46.0247 32.0633 46.4445 31.5456 46.4445H30.5518C30.0341 46.4445 29.6143 46.0247 29.6143 45.507C29.6143 44.9892 30.0341 44.5695 30.5518 44.5695H31.5456C32.0633 44.5695 32.4831 44.9892 32.4831 45.507ZM36.4071 45.507C36.4071 46.0247 35.9873 46.4445 35.4696 46.4445H34.4759C33.9581 46.4445 33.5384 46.0247 33.5384 45.507C33.5384 44.9892 33.9581 44.5695 34.4759 44.5695H35.4696C35.9873 44.5695 36.4071 44.9892 36.4071 45.507ZM40.331 45.507C40.331 46.0247 39.9112 46.4445 39.3935 46.4445H38.3998C37.882 46.4445 37.4623 46.0247 37.4623 45.507C37.4623 44.9892 37.882 44.5695 38.3998 44.5695H39.3935C39.9112 44.5695 40.331 44.9892 40.331 45.507Z" fill="#111113"/>
</svg>
