<svg width="60" height="60" viewBox="0 0 60 60" fill="none" xmlns="http://www.w3.org/2000/svg">
<g clip-path="url(#clip0_30_406)">
<path d="M59.0625 37.5C58.8139 37.5 58.5754 37.5988 58.3996 37.7746C58.2238 37.9504 58.125 38.1889 58.125 38.4375C58.125 38.6861 58.0262 38.9246 57.8504 39.1004C57.6746 39.2762 57.4361 39.375 57.1875 39.375H44.0625C43.8139 39.375 43.5754 39.2762 43.3996 39.1004C43.2238 38.9246 43.125 38.6861 43.125 38.4375V32.8125C43.125 32.5639 43.2238 32.3254 43.3996 32.1496C43.5754 31.9738 43.8139 31.875 44.0625 31.875C44.3111 31.875 44.5496 31.7762 44.7254 31.6004C44.9012 31.4246 45 31.1861 45 30.9375C45 30.6889 44.9012 30.4504 44.7254 30.2746C44.5496 30.0988 44.3111 30 44.0625 30C43.3684 30.0024 42.7 30.2631 42.1875 30.7312C41.675 30.2631 41.0066 30.0024 40.3125 30H11.25C11.0014 30 10.7629 29.9012 10.5871 29.7254C10.4113 29.5496 10.3125 29.3111 10.3125 29.0625V23.4375C10.3125 23.1889 10.4113 22.9504 10.5871 22.7746C10.7629 22.5988 11.0014 22.5 11.25 22.5H27.1875C27.4361 22.5 27.6746 22.4012 27.8504 22.2254C28.0262 22.0496 28.125 21.8111 28.125 21.5625C28.125 21.3139 28.0262 21.0754 27.8504 20.8996C27.6746 20.7238 27.4361 20.625 27.1875 20.625H19.6875C19.4389 20.625 19.2004 20.5262 19.0246 20.3504C18.8488 20.1746 18.75 19.9361 18.75 19.6875V14.0625C18.75 13.8139 18.8488 13.5754 19.0246 13.3996C19.2004 13.2238 19.4389 13.125 19.6875 13.125H21.5625C21.8111 13.125 22.0496 13.0262 22.2254 12.8504C22.4012 12.6746 22.5 12.4361 22.5 12.1875C22.5 11.9389 22.4012 11.7004 22.2254 11.5246C22.0496 11.3488 21.8111 11.25 21.5625 11.25H19.6875C18.9934 11.2524 18.325 11.5131 17.8125 11.9812C17.3 11.5131 16.6316 11.2524 15.9375 11.25H2.8125C2.06658 11.25 1.35121 11.5463 0.823762 12.0738C0.296316 12.6012 0 13.3166 0 14.0625L0 19.6875C0.00244093 20.3816 0.263107 21.05 0.73125 21.5625C0.263107 22.075 0.00244093 22.7434 0 23.4375L0 29.0625C0.00244093 29.7566 0.263107 30.425 0.73125 30.9375C0.263107 31.45 0.00244093 32.1184 0 32.8125L0 38.4375C0.00244093 39.1316 0.263107 39.8 0.73125 40.3125C0.263107 40.825 0.00244093 41.4934 0 42.1875L0 47.8125C0.00244093 48.5066 0.263107 49.175 0.73125 49.6875C0.263107 50.2 0.00244093 50.8684 0 51.5625L0 57.1875C0 57.9334 0.296316 58.6488 0.823762 59.1762C1.35121 59.7037 2.06658 60 2.8125 60H15.9375C16.6316 59.9976 17.3 59.7369 17.8125 59.2688C18.325 59.7369 18.9934 59.9976 19.6875 60H40.3125C41.0066 59.9976 41.675 59.7369 42.1875 59.2688C42.7 59.7369 43.3684 59.9976 44.0625 60H57.1875C57.9334 60 58.6488 59.7037 59.1762 59.1762C59.7037 58.6488 60 57.9334 60 57.1875V51.5625C59.9976 50.8684 59.7369 50.2 59.2688 49.6875C59.7369 49.175 59.9976 48.5066 60 47.8125V42.1875C59.9976 41.4934 59.7369 40.825 59.2688 40.3125C59.7369 39.8 59.9976 39.1316 60 38.4375C60 38.1889 59.9012 37.9504 59.7254 37.7746C59.5496 37.5988 59.3111 37.5 59.0625 37.5ZM57.1875 41.25C57.4361 41.25 57.6746 41.3488 57.8504 41.5246C58.0262 41.7004 58.125 41.9389 58.125 42.1875V47.8125C58.125 48.0611 58.0262 48.2996 57.8504 48.4754C57.6746 48.6512 57.4361 48.75 57.1875 48.75H52.5C52.2514 48.75 52.0129 48.6512 51.8371 48.4754C51.6613 48.2996 51.5625 48.0611 51.5625 47.8125V42.1875C51.5625 41.9389 51.6613 41.7004 51.8371 41.5246C52.0129 41.3488 52.2514 41.25 52.5 41.25H57.1875ZM48.75 41.25C48.9986 41.25 49.2371 41.3488 49.4129 41.5246C49.5887 41.7004 49.6875 41.9389 49.6875 42.1875V47.8125C49.6875 48.0611 49.5887 48.2996 49.4129 48.4754C49.2371 48.6512 48.9986 48.75 48.75 48.75H35.625C35.3764 48.75 35.1379 48.6512 34.9621 48.4754C34.7863 48.2996 34.6875 48.0611 34.6875 47.8125V42.1875C34.6875 41.9389 34.7863 41.7004 34.9621 41.5246C35.1379 41.3488 35.3764 41.25 35.625 41.25H48.75ZM40.3125 31.875C40.5611 31.875 40.7996 31.9738 40.9754 32.1496C41.1512 32.3254 41.25 32.5639 41.25 32.8125V38.4375C41.25 38.6861 41.1512 38.9246 40.9754 39.1004C40.7996 39.2762 40.5611 39.375 40.3125 39.375H27.1875C26.9389 39.375 26.7004 39.4738 26.5246 39.6496C26.3488 39.8254 26.25 40.0639 26.25 40.3125C26.25 40.5611 26.3488 40.7996 26.5246 40.9754C26.7004 41.1512 26.9389 41.25 27.1875 41.25H31.875C32.1236 41.25 32.3621 41.3488 32.5379 41.5246C32.7137 41.7004 32.8125 41.9389 32.8125 42.1875V47.8125C32.8125 48.0611 32.7137 48.2996 32.5379 48.4754C32.3621 48.6512 32.1236 48.75 31.875 48.75H11.25C11.0014 48.75 10.7629 48.6512 10.5871 48.4754C10.4113 48.2996 10.3125 48.0611 10.3125 47.8125V42.1875C10.3125 41.9389 10.4113 41.7004 10.5871 41.5246C10.7629 41.3488 11.0014 41.25 11.25 41.25H23.4375C23.6861 41.25 23.9246 41.1512 24.1004 40.9754C24.2762 40.7996 24.375 40.5611 24.375 40.3125C24.375 40.0639 24.2762 39.8254 24.1004 39.6496C23.9246 39.4738 23.6861 39.375 23.4375 39.375H19.6875C19.4389 39.375 19.2004 39.2762 19.0246 39.1004C18.8488 38.9246 18.75 38.6861 18.75 38.4375V32.8125C18.75 32.5639 18.8488 32.3254 19.0246 32.1496C19.2004 31.9738 19.4389 31.875 19.6875 31.875H40.3125ZM1.875 47.8125V42.1875C1.875 41.9389 1.97377 41.7004 2.14959 41.5246C2.3254 41.3488 2.56386 41.25 2.8125 41.25H7.5C7.74864 41.25 7.9871 41.3488 8.16291 41.5246C8.33873 41.7004 8.4375 41.9389 8.4375 42.1875V47.8125C8.4375 48.0611 8.33873 48.2996 8.16291 48.4754C7.9871 48.6512 7.74864 48.75 7.5 48.75H2.8125C2.56386 48.75 2.3254 48.6512 2.14959 48.4754C1.97377 48.2996 1.875 48.0611 1.875 47.8125ZM15.9375 31.875C16.1861 31.875 16.4246 31.9738 16.6004 32.1496C16.7762 32.3254 16.875 32.5639 16.875 32.8125V38.4375C16.875 38.6861 16.7762 38.9246 16.6004 39.1004C16.4246 39.2762 16.1861 39.375 15.9375 39.375H2.8125C2.56386 39.375 2.3254 39.2762 2.14959 39.1004C1.97377 38.9246 1.875 38.6861 1.875 38.4375V32.8125C1.875 32.5639 1.97377 32.3254 2.14959 32.1496C2.3254 31.9738 2.56386 31.875 2.8125 31.875H15.9375ZM1.875 29.0625V23.4375C1.875 23.1889 1.97377 22.9504 2.14959 22.7746C2.3254 22.5988 2.56386 22.5 2.8125 22.5H7.5C7.74864 22.5 7.9871 22.5988 8.16291 22.7746C8.33873 22.9504 8.4375 23.1889 8.4375 23.4375V29.0625C8.4375 29.3111 8.33873 29.5496 8.16291 29.7254C7.9871 29.9012 7.74864 30 7.5 30H2.8125C2.56386 30 2.3254 29.9012 2.14959 29.7254C1.97377 29.5496 1.875 29.3111 1.875 29.0625ZM1.875 14.0625C1.875 13.8139 1.97377 13.5754 2.14959 13.3996C2.3254 13.2238 2.56386 13.125 2.8125 13.125H15.9375C16.1861 13.125 16.4246 13.2238 16.6004 13.3996C16.7762 13.5754 16.875 13.8139 16.875 14.0625V19.6875C16.875 19.9361 16.7762 20.1746 16.6004 20.3504C16.4246 20.5262 16.1861 20.625 15.9375 20.625H2.8125C2.56386 20.625 2.3254 20.5262 2.14959 20.3504C1.97377 20.1746 1.875 19.9361 1.875 19.6875V14.0625ZM15.9375 58.125H2.8125C2.56386 58.125 2.3254 58.0262 2.14959 57.8504C1.97377 57.6746 1.875 57.4361 1.875 57.1875V51.5625C1.875 51.3139 1.97377 51.0754 2.14959 50.8996C2.3254 50.7238 2.56386 50.625 2.8125 50.625H15.9375C16.1861 50.625 16.4246 50.7238 16.6004 50.8996C16.7762 51.0754 16.875 51.3139 16.875 51.5625V57.1875C16.875 57.4361 16.7762 57.6746 16.6004 57.8504C16.4246 58.0262 16.1861 58.125 15.9375 58.125ZM40.3125 58.125H19.6875C19.4389 58.125 19.2004 58.0262 19.0246 57.8504C18.8488 57.6746 18.75 57.4361 18.75 57.1875V51.5625C18.75 51.3139 18.8488 51.0754 19.0246 50.8996C19.2004 50.7238 19.4389 50.625 19.6875 50.625H40.3125C40.5611 50.625 40.7996 50.7238 40.9754 50.8996C41.1512 51.0754 41.25 51.3139 41.25 51.5625V57.1875C41.25 57.4361 41.1512 57.6746 40.9754 57.8504C40.7996 58.0262 40.5611 58.125 40.3125 58.125ZM58.125 57.1875C58.125 57.4361 58.0262 57.6746 57.8504 57.8504C57.6746 58.0262 57.4361 58.125 57.1875 58.125H44.0625C43.8139 58.125 43.5754 58.0262 43.3996 57.8504C43.2238 57.6746 43.125 57.4361 43.125 57.1875V51.5625C43.125 51.3139 43.2238 51.0754 43.3996 50.8996C43.5754 50.7238 43.8139 50.625 44.0625 50.625H57.1875C57.4361 50.625 57.6746 50.7238 57.8504 50.8996C58.0262 51.0754 58.125 51.3139 58.125 51.5625V57.1875Z" fill="#111113"/>
<path d="M31.6884 26.8444C32.0122 27.539 32.5004 28.1444 33.1106 28.6081C33.7209 29.0718 34.4348 29.38 35.1909 29.5059C35.4676 29.5543 35.748 29.5788 36.029 29.5791C36.6518 29.5783 37.2683 29.454 37.8428 29.2134C38.4173 28.9729 38.9384 28.6208 39.3759 28.1775L43.0049 24.5484L45.7518 27.2944L45.0571 27.9891C44.8814 28.1649 44.7826 28.4033 44.7826 28.6519C44.7826 28.9005 44.8814 29.1389 45.0571 29.3147L51.8446 36.1012C52.7407 36.9973 53.9561 37.5008 55.2234 37.5008C56.4907 37.5008 57.706 36.9973 58.6021 36.1012C59.4982 35.2052 60.0016 33.9898 60.0016 32.7225C60.0016 31.4552 59.4982 30.2399 58.6021 29.3438L51.8156 22.5572C51.6398 22.3814 51.4013 22.2827 51.1528 22.2827C50.9042 22.2827 50.6657 22.3814 50.4899 22.5572L49.7952 23.2519L47.0493 20.505L50.6784 16.875C51.2172 16.3332 51.6183 15.6702 51.848 14.9414C52.0778 14.2127 52.1296 13.4395 51.9991 12.6866C51.8685 11.9338 51.5594 11.2232 51.0977 10.6144C50.6359 10.0055 50.035 9.51626 49.3452 9.1875L41.6521 5.54156C41.5405 5.48558 41.4188 5.45246 41.2942 5.44416C41.1696 5.43586 41.0446 5.45254 40.9265 5.49321C40.8084 5.53389 40.6997 5.59775 40.6066 5.68104C40.5136 5.76433 40.4381 5.86537 40.3846 5.97824C40.3312 6.0911 40.3008 6.2135 40.2953 6.33827C40.2898 6.46303 40.3092 6.58764 40.3526 6.70477C40.3959 6.8219 40.4622 6.9292 40.5475 7.02036C40.6329 7.11152 40.7356 7.18471 40.8496 7.23563L48.5427 10.8797C48.9621 11.0795 49.3275 11.377 49.6082 11.7471C49.8889 12.1172 50.0768 12.5493 50.1561 13.007C50.2354 13.4647 50.2039 13.9348 50.0641 14.3778C49.9243 14.8208 49.6804 15.2238 49.3527 15.5531L45.7237 19.1822L43.6724 17.1309C43.128 16.6116 42.4045 16.3218 41.6521 16.3218C40.8997 16.3218 40.1762 16.6116 39.6318 17.1309C39.3664 17.3963 39.1559 17.7113 39.0122 18.0581C38.8686 18.4048 38.7946 18.7764 38.7946 19.1517C38.7946 19.527 38.8686 19.8987 39.0122 20.2454C39.1559 20.5921 39.3664 20.9071 39.6318 21.1725L41.6831 23.2238L38.054 26.8519C37.7247 27.1795 37.3216 27.4235 36.8786 27.5632C36.4356 27.703 35.9656 27.7346 35.5078 27.6552C35.0501 27.5759 34.6181 27.388 34.248 27.1073C33.8778 26.8266 33.5804 26.4612 33.3806 26.0419L24.6571 7.62188C24.4018 7.0809 24.3196 6.47429 24.4217 5.88486C24.5239 5.29543 24.8055 4.7519 25.2281 4.32844L26.8312 2.72531C27.2543 2.30275 27.7976 2.02127 28.3868 1.9194C28.976 1.81754 29.5824 1.90026 30.1228 2.15625L37.0996 5.46094C37.2113 5.51692 37.333 5.55004 37.4576 5.55834C37.5822 5.56664 37.7072 5.54997 37.8253 5.50929C37.9433 5.46861 38.0521 5.40475 38.1451 5.32146C38.2382 5.23817 38.3137 5.13713 38.3671 5.02427C38.4206 4.91141 38.451 4.789 38.4565 4.66423C38.462 4.53947 38.4425 4.41486 38.3992 4.29773C38.3559 4.1806 38.2896 4.0733 38.2042 3.98214C38.1189 3.89098 38.0162 3.81779 37.9021 3.76688L30.9252 0.460314C30.035 0.0392183 29.0365 -0.0967177 28.0661 0.0710828C27.0957 0.238883 26.2008 0.702234 25.5037 1.39781L23.9006 3C23.205 3.69713 22.7416 4.59203 22.5738 5.56242C22.406 6.53281 22.542 7.53134 22.9631 8.42156L31.6884 26.8444ZM57.2821 30.6722C57.5772 30.9356 57.8155 31.2564 57.9823 31.6151C58.149 31.9737 58.2409 32.3626 58.2521 32.758C58.2633 33.1534 58.1937 33.5469 58.0475 33.9145C57.9014 34.282 57.6817 34.6158 57.402 34.8955C57.1223 35.1752 56.7885 35.3949 56.421 35.541C56.0534 35.6872 55.6599 35.7568 55.2645 35.7456C54.8691 35.7344 54.4802 35.6425 54.1216 35.4758C53.7629 35.309 53.4421 35.0707 53.1787 34.7756L47.0549 28.6519L51.1584 24.5484L57.2821 30.6722ZM40.6696 19.1513C40.6694 18.9569 40.7268 18.7669 40.8347 18.6053C40.9425 18.4436 41.0959 18.3176 41.2754 18.2432C41.4549 18.1688 41.6525 18.1494 41.843 18.1874C42.0336 18.2254 42.2086 18.319 42.3459 18.4566L48.4696 24.5803L47.0812 25.9688L40.9574 19.845C40.8659 19.7542 40.7934 19.6461 40.744 19.527C40.6946 19.4079 40.6693 19.2802 40.6696 19.1513Z" fill="#111113"/>
</g>
<defs>
<clipPath id="clip0_30_406">
<rect width="60" height="60" fill="white"/>
</clipPath>
</defs>
</svg>
